<?xml version="1.0" encoding="UTF-8" standalone="no"?><!DOCTYPE svg PUBLIC "-//W3C//DTD SVG 1.1//EN" "http://www.w3.org/Graphics/SVG/1.1/DTD/svg11.dtd"><svg width="100%" height="100%" viewBox="0 0 1886 1986" version="1.1" xmlns="http://www.w3.org/2000/svg" xmlns:xlink="http://www.w3.org/1999/xlink" xml:space="preserve" xmlns:serif="http://www.serif.com/" style="fill-rule:evenodd;clip-rule:evenodd;stroke-linejoin:round;stroke-miterlimit:2;"><g id="Artboard1"><rect x="-31" y="-8" width="2005" height="2072" style="fill:#fff;"/><g id="LOGO---PODSTAWA"><g><path id="Combined-Shape" d="M637.496,1381.857c9.418,13.969 21.19,33.687 29.653,51.913c7.168,15.437 9.614,30.48 12.48,46.007c2.099,11.375 8.242,42.098 6.749,57.243c-2.366,23.995 -12.016,47.207 -17.676,60.349c-4.268,9.909 -8.079,20.595 -14.595,31.199c-5.999,9.764 -14.789,19.744 -17.202,22.582c-2.831,3.326 -7.996,10.834 -14.039,15.563c-9.865,7.719 -21.657,11.753 -26.402,5.72c-7.653,-9.727 7.812,-50.734 0.128,-48.575c-6.56,1.844 -10.316,-19.362 -14.202,-21.1c-11.078,-4.954 -15.721,8.273 -31.118,74.996c-5.749,24.915 -12.738,47.692 -15.462,70.377c-1.936,16.123 0.348,31.834 -0.121,45.96c-0.445,13.396 6.185,22.125 7.013,33.09c1.515,20.05 6.533,43.335 12.1,52.33c5.28,8.53 5.73,23.03 7.109,38.586c1.778,20.05 -0.688,33.352 -19.543,35.502c-11.78,1.343 -31.985,1.737 -55.3,-13.778c-7.738,-5.149 -31.848,-14.459 -45.278,-18.769c-15.385,-4.936 -32.167,-16.601 -49.162,-23.868c-14.37,-6.145 -29.062,-17.938 -39.814,-25.077c-6.469,-4.297 -13.003,-12.206 -16.857,-16.655c-9.675,-11.172 -17.652,-17.495 -23.454,-28.881c-6.101,-11.969 -9.816,-28.988 -11.2,-40.082c-2.165,-17.341 3.176,-32.863 4.453,-44.842c1.313,-12.313 1.16,-21.427 0.061,-23.202c-1.229,-1.985 4.814,-2.544 10.503,11.071c6.416,15.352 13.438,46.315 29.093,67.907c5.326,7.347 15.779,16.855 21.846,24.158c6.204,7.467 19.205,16.647 25.506,23.512c11.498,12.528 38.934,17.557 47.557,25.481c6.845,6.291 17.044,10.339 20.753,11.932c9.761,4.191 16.184,11.896 25.029,14.522c9.429,2.799 16.35,0.151 16.527,-17.656c0.06,-5.92 -6.018,-16.4 -7.605,-26.028c-1.701,-10.311 0.956,-20.07 -3.002,-35.482c-3.283,-12.779 -3.277,-34.319 -4.514,-45.592c-1.228,-11.202 3.37,-31.965 4.746,-42.289c1.91,-14.326 0.343,-27.557 3.195,-37.506c5.372,-18.748 10.058,-37.373 15.524,-48.648c6.158,-12.697 10.093,-24.163 15.464,-36.654c12.175,-28.317 13.884,-33.174 25.166,-55.513c4.834,-9.57 25.147,-5.337 41.42,5.138c16.844,10.842 25.833,58.467 33.442,21.558c3.233,-15.682 9.334,-26.033 10.726,-36.379c1.394,-10.368 1.697,-28.365 -0.019,-38.607c-1.432,-8.548 -2.651,-20.974 -4.802,-33.229c-4.481,-25.534 -5.107,-49.343 -12.264,-66.465c-1.959,-4.685 -4.731,-18.308 -7.88,-30.376c-2.799,-10.72 -6.051,-20.09 -6.917,-22.741c-4.58,-14.029 14.367,4.869 32.185,31.297Zm677.409,-21.371c-6.622,-12.33 10.605,-3.919 15.168,14.851c6.135,25.241 13.812,93.983 16.338,106.49c0.741,3.672 2.26,7.454 4.557,11.348c3.184,5.397 19.125,31.812 27.34,59.207c4.163,13.875 4.111,33.293 -2.507,46.496c-5.463,10.898 3.12,8.826 21.47,-5.042c15.197,-11.484 35.301,-38.136 46.596,-38.277c6.65,-0.083 37.113,18.938 51.938,87.611c6.214,28.78 -2.768,93.13 4.124,125.373c2.829,13.235 14.135,34.373 18.487,52.802c4.338,18.366 11.088,37.137 2.604,53.436c-8.484,16.299 -12.386,19.947 43.666,-19.135c11.383,-7.936 33.482,-21.675 48.083,-35.166c16.517,-15.26 21.746,-29.147 43.498,-51.523c13.6,-13.99 24.441,-47.329 42.163,-87.034c6.813,-15.267 18.038,-37.846 30.508,-72.087c5.987,-16.443 17.773,-24.96 12.871,-55.058c-4.902,-30.098 17.012,-0.184 18.983,10.208c7.103,37.436 -8.277,61.683 -10.597,71.957c-5.814,25.752 -10.177,48.989 -18.78,69.961c-13.405,32.686 -15.343,63.612 -29.845,89.187c-15.139,26.697 -37.883,51.758 -58.549,67.772c-29.946,23.203 -68.052,30.746 -102.661,58.252c-13.752,10.93 -27.933,17.519 -40.592,20.795c-18.456,4.778 -33.679,2.515 -39.627,-3.596c-4.571,-4.697 -3.665,-11.668 5.458,-19.465c9.077,-7.756 9.852,-32.507 9.966,-69.045l0.009,-3.423c0.03,-14.089 -15.944,-41.528 -19.251,-71.529c-1.327,-12.052 -0.263,-33.817 0.153,-57.813c0.164,-9.394 0.204,-24.294 0.118,-44.705c-5.124,-36.971 -13.142,-56.951 -24.052,-59.939c-7.701,-2.108 -38.125,24.866 -69.497,48.166c-13.075,9.711 -46.291,23.788 -33.726,-0.089c3.575,-6.792 12.341,-42.204 11.339,-79.983c-0.261,-9.834 -7.81,-32.911 -16.48,-52.038c-7.485,-16.507 -16.04,-28.241 -18.682,-47.733c-2.17,-15.996 8.287,-39.031 9.136,-70.751c0.412,-15.423 6.899,-38.151 0.276,-50.482Zm-1256.86,-692.045c6.721,35.579 10.667,59.954 11.837,73.124c2.479,27.886 -1.705,45.367 1.149,59.613c7.369,36.792 20.037,72.451 31.778,107.697c12.963,38.916 18.169,77.15 26.272,112.285c8.705,37.747 4.335,50.344 5.897,82.225c1.043,21.271 -4.532,56.479 -6.323,79.124c-2.983,37.718 -8.052,63.245 -9.888,101.103c-0.565,11.659 -1.123,52.05 -0.167,63.253c1.95,22.856 8.864,44.893 15.564,64.659c19.535,57.62 63.723,115.914 83.851,188.083c9.832,35.253 12.632,92.264 20.687,109.582c3.159,6.79 9.608,-29.078 26.669,-43.82c17.061,-14.743 38.035,-21.13 35.569,-17.328c-7.397,11.398 -14.946,15.69 -21.813,38.862c-4.016,13.559 -7.473,47.699 -14.041,86.151c-1.24,7.266 -3.818,16.454 -7.729,27.564c-11.982,-3.316 -20.134,-6.588 -24.457,-9.815c-13.173,-9.835 -20.136,-24.316 -24.488,-33.696c-7.646,-16.48 -10.821,-19.973 -14.212,-39.091c-1.958,-11.04 -4.443,-38.554 -6.728,-47.743c-8.97,-36.079 -19.729,-59.198 -28.797,-75.873c-9.011,-16.571 -15.378,-37.615 -24.098,-52.019c-10.816,-17.866 -19.679,-29.733 -29.516,-44.088c-22.402,-32.695 -21.787,-61.785 -28.365,-86.92c-9.021,-34.481 -17.791,-54.265 -20.388,-85.49c-2.761,-33.19 9.583,-77.562 11.477,-106.331c0.88,-13.338 9.265,-54.434 9.647,-86.744c0.507,-42.649 -7.244,-77.67 -8.353,-89.288c-1.636,-17.153 2.731,-42.75 0.151,-57.079c-3.071,-17.05 -6.35,-34.578 -10.058,-48.745c-7.304,-27.902 -20.759,-51.571 -26.149,-75.284c-5.787,-25.45 -10.516,-47.606 -7.155,-79.307c2.277,-21.48 2.7,-48.007 7.721,-64.938c4.266,-14.383 12.418,-30.959 24.457,-49.727Zm243.239,376.458l1.964,4.655c1.456,16.456 7.367,41.597 -2.28,67.095c-9.647,25.499 -19.311,51.825 -18.901,67.855c0.411,16.098 6.092,21.289 12.305,35.295c7.323,16.508 21.403,41.183 27.354,59.802c3.451,10.796 4.213,29.789 5.296,49.849c0.837,15.538 7.202,38.358 11.251,71.091c5.308,42.912 48.413,74.569 54.184,76.178c8.776,2.448 -7.052,-16.306 0.147,-55.779c6.182,-33.894 25.965,-52.341 34.456,-65.439l-1.422,3.468l-2.723,6.595c-8.022,19.544 -0.128,48.293 -0.206,78.097c-0.055,20.699 -3.333,43.405 3.946,64.98c6.797,20.144 0.256,45.623 -11.919,45.591c-25.214,-0.067 -40.676,-32.966 -61.729,-54.998c-15.916,-16.654 -40.887,-47.789 -49.306,-67.152c-8.595,-19.763 -10.755,-33.006 -17.289,-76.953c-2.01,-13.514 1.629,-35.469 0.119,-45.06c-2.135,-13.564 -6.165,-25.75 -10.959,-37.132c-5.569,-13.226 -20.257,-25.401 -26.106,-37.364l-0.918,-1.879c-7.805,-15.96 -15.377,-31.678 -15.829,-49.32c-0.385,-14.986 9.039,-40.12 17.032,-56.763c9.697,-20.188 28.623,-31.901 38.335,-49.645c6.675,-12.195 11.761,-23.181 13.066,-32.088l0.129,-0.978Zm283.206,132.766c-3.716,-22.375 9.907,-119.493 25.824,-22.129c3.639,22.25 9.2,39.317 13.915,57.173c4.899,18.546 8.268,37.68 14.549,57.317c6.359,19.876 13.342,35.216 20.88,49.695c3.677,7.063 20.582,24.571 36.832,42.595c17.218,19.098 42.573,31.954 50.696,37.784c19.434,13.944 41.392,10.262 67.599,12.123c15.962,1.133 49.62,5.446 81.944,-5.178c15.955,-5.244 37.897,-18.79 65.827,-40.637c19.836,20.902 33.591,33.799 41.265,38.695c10.212,6.514 17.538,11.848 27.484,16.165c18.865,8.187 39.184,8.777 60.431,7.637c18.227,-0.978 41.282,-8.121 68.844,-15.768c27.564,-7.648 52.793,-31.447 60.042,-39.992c13.209,-15.566 17.809,-28.062 30.585,-51.861c6.093,-11.351 13.635,-20.094 21.213,-36.849c13.029,-28.807 12.763,-59.998 14.168,-71.485c1.1,-9 19.316,9.679 19.224,31.529c-0.106,22.251 -7.876,47.967 -13.827,67.492c-3.926,12.884 -7.536,23.649 -16.078,40.834c-8.563,17.231 -15.076,22.437 -35.244,50.579c-19.79,27.615 -60.703,44.552 -72.561,48.708c-9.453,9.691 -16.719,16.576 -21.793,20.651c-24.047,19.312 -43.64,29.636 -53.281,34.625c-30.642,15.852 -70.071,25.573 -111.745,28.031c-50.568,2.982 -117.025,-4.391 -154.372,-24.722c-13.545,-7.375 -47.175,-40.272 -12.788,-34.359c13.99,2.405 33.363,14.725 54.035,17.45c30.138,3.971 64.726,12.149 93.74,10.428c16.744,-0.993 56.517,-7.98 76.191,-12.739c11.512,-2.785 28.107,-10.279 49.785,-22.482c-15.828,-0.695 -56.248,-4.719 -65.834,-7.187c-16.21,-4.174 -32.772,-8.263 -45.052,-21.351c-3.843,-4.095 -8.709,-7.97 -14.598,-11.623c-25.045,12.89 -49.056,21.945 -72.035,27.168c-22.979,5.223 -59.045,5.128 -108.199,-0.286c-51.506,-10.652 -93.316,-37.091 -125.431,-79.313c-13.541,-17.803 -34.456,-45.642 -43.814,-74.646c-7.78,-24.113 -18.983,-67.238 -28.424,-124.073Zm1056.897,60.972c-0.019,7.112 -2.983,31.891 -2.468,36.187c1.592,13.304 2.022,27.733 7.594,38.275c8.335,15.77 11.448,30.014 17.78,45.333c8.564,38.403 6.177,70.482 -7.167,96.234c-7.487,14.45 -27.242,34.911 -45.956,48.368c-14.536,10.454 -40.347,28.957 -46.07,23.957c-3.215,-2.809 -0.832,-19.111 -2.81,-29.844c-1.484,-8.059 -3.403,-16.719 -3.025,-23.156c0.286,-4.861 1.789,-17.075 0.071,-26.728c-0.894,-5.023 -3.585,-12.364 -8.073,-22.025c7.139,4.487 29.975,-1.765 35.686,20.766c1.593,6.285 4.539,43.944 33.916,1.422c8.589,-12.431 9.548,-60.983 5.387,-77.332c-4.429,-17.407 -6.969,-34.03 -10.071,-52.524l-0.294,-1.8c-2.468,-15.498 -8.082,-25.257 0.415,-43.966c1.065,-2.346 25.104,-40.28 25.086,-33.167Zm118.021,-869.07c-15.161,-17.133 45.828,10.249 76.302,57.802c9.288,14.496 6.857,30.751 12.227,48.092c6.44,20.791 13.069,43.222 15.718,67.38c2.622,23.917 0.346,53.929 -1.429,87.896c-0.979,18.71 -2.7,46.003 -7.988,66.291c-8.001,30.692 -18.008,59.056 -27.032,91.218c-7.511,26.768 -8.661,66.538 -8.743,97.513c-0.07,26.604 13.878,71.662 24.076,152.922c2.001,15.947 5.122,41.345 4.997,59.09c-0.229,32.502 -0.185,69.922 -0.293,110.919c-0.071,27.001 -5.796,51.081 -13.798,75.55c-12.534,38.32 -6.398,86.534 -45.357,128.04c-12.079,12.868 -21.422,13.609 -34.128,39.269c-6.273,12.667 -15.223,-7.827 -4.207,-34.343c9.724,-23.402 25.868,-35.642 31.57,-50.242c8.374,-21.441 1.801,-60.263 8.227,-77.993c11.742,-32.4 9.064,-59.177 9.12,-80.409c0.018,-6.77 -0.857,-37.776 -3.068,-69.601l-0.137,-1.95c-1.371,-19.264 -3.672,-38.132 -5.372,-53.367c-2.913,-26.111 -7.475,-50.501 -13.908,-76.633c-6.636,-26.953 -15.147,-55.815 -18.213,-93.993c-1.065,-13.263 4.507,-27.107 4.008,-42.684c-1.026,-32.035 -0.966,-62.131 7.489,-97.94c4.634,-19.623 14.978,-43.269 21.617,-64.513c5.322,-17.029 15.988,-35.842 21.76,-54.06c11.2,-35.342 7.745,-71.701 6.402,-111.098c-0.945,-27.736 -2.424,-65.552 -15.122,-93.555c-17.006,-37.507 -29.558,-62.469 -44.717,-79.602Zm-147.112,525.256c-3.022,-14.736 7.069,-13.307 15.077,0.04c6.249,10.413 10.062,28.751 14.181,47.26l0.459,2.057c2.349,10.488 7.57,22.072 7.068,33.173c-0.852,18.86 -9.443,36.278 -12.98,44.23c-6.118,13.756 -25.129,44.093 -38.731,55.637c-10.193,8.65 -69.146,44.472 -67.519,31.069c0.751,-6.195 8.368,-22.733 10.543,-37.774c2.533,-17.5 -7.034,-54.808 -10.276,-63.05c-3.243,-8.241 10.141,-13.512 25.316,13.905c5.355,9.675 6.457,39.109 19.988,24.401l0.84,-0.932c9.196,-10.4 22.5,-37.003 28.599,-50.715c6.71,-15.085 16.505,-55.057 7.434,-99.301Zm-284.589,-873.559c8.256,1.857 18.453,4.501 26.602,9.33c6.049,3.585 12.511,7.502 18.282,11.603c6.06,4.307 11.766,12.549 18.605,20.426c3.943,4.543 11.283,11.144 17.781,20.915c4.338,6.524 13.009,19.776 21.346,10.321c1.801,-2.041 10.177,-10.764 20.396,-19.396c7.179,-6.063 18.414,-13.792 31.344,-17.725c10.535,-3.206 21.253,-7.433 38.165,-5.81c3.864,0.372 14.323,-0.414 18.56,0.049c10.123,1.109 18.411,7.192 26.188,12.105c14.745,9.315 24.166,14.759 38.161,28.053c3.724,3.538 10.254,11.114 15.96,21.744c2.252,4.195 7.024,18.763 -4.647,11.857c-2.166,-1.282 -26.662,-11.041 -44.882,-11.988c-20.932,-1.089 -35.989,6.869 -39.685,9.445c-3.409,2.378 -12.922,7.988 -16.137,13.718c-3.818,6.802 -5.429,15.488 -2.525,21.161c3.589,7.015 11.321,13.528 21.957,13.557c2.004,0.005 20.999,-0.597 39.178,3.022c4.892,0.974 20.44,2.221 33.896,5.462c13.239,3.19 24.391,8.363 28.964,10.799c4.798,2.554 24.403,8.75 38.446,18.654c14.405,10.16 23.216,24.017 25.055,25.696c4.152,3.79 3.989,12.178 10.193,35.659c1.814,6.868 -3.843,43.677 -10.344,21.355c-6.501,-22.322 -13.713,-21.881 -25.032,-34.337c-11.318,-12.457 -58.754,-32.314 -74.575,-39.034c-7.706,-3.272 -23.427,-6.528 -42.476,-5.256c-13.201,0.882 -42.468,1.463 -82.938,-14.723c-40.47,-16.186 -27.084,-48.226 -27.058,-57.906c0.036,-13.72 -23.747,24.273 -33.683,19.578c-6.985,-3.3 -17.715,-25.745 -21.824,-16.108c-4.018,9.423 -14.822,23.087 -32.41,40.993l-6.09,-5.357c36.252,34.477 40.866,79.765 55.579,90.391c4.939,3.565 12.03,5.992 20.381,0.054c6.17,-4.388 10.631,-15.952 21.405,-15.924c25.353,0.067 17.246,67.459 20.69,79.957c2.515,9.123 19.965,24.412 27.095,40.762c11.15,25.564 9.703,50.674 -16.545,33.831c-19.587,-12.57 4.847,164.792 -0.528,199.785c-10.981,71.508 -10.589,146.635 -48.403,208.536c-116.385,190.515 -18.785,134.118 -105.126,263.47c-7.297,10.934 -7.294,-51.561 -4.767,-69.792c3.613,-26.058 -2.294,-31.263 16.592,-75.854c8.295,-19.586 10.659,-39.951 19.723,-62.413c8.558,-21.214 24.596,-44.175 34.31,-67.772c10.132,-24.611 20.781,-49.93 27.461,-76.336c6.331,-25.021 8.654,-51.987 9.3,-79.605c0.441,-18.813 11.513,-40.688 11.131,-59.698c-0.381,-18.995 -5.335,-35.109 -5.067,-53.487c0.08,-5.575 -4.602,-29.777 -7.845,-47.934c-2.405,-13.46 -2.917,-19.215 -5.889,-34.599c-2.857,-14.793 -11.874,-31.775 -14.283,-44.495c-3.274,-17.293 0.454,-28.646 0.09,-33.875c-0.996,-14.302 35.635,13.889 33.561,0.089c-0.559,-3.72 -13.761,-13.246 -13.115,-24.75c0.885,-15.757 7.288,-34.415 0.104,-39.321c-7.834,-5.348 -31.332,34.998 -36.902,12.98c-5.57,-22.02 -15.793,-23.686 -25.2,-43.538c-20.262,-42.755 -49.441,-91.932 -91.743,-119.987c-26.062,-17.285 -43.984,-27.317 -67.292,-37.318c-24.059,-10.323 -53.417,-20.406 -74.75,-25c-27.94,-6.018 -75.623,-6.91 -99.304,-7.193c-45.366,-0.543 -61.392,15.923 -93.663,11.595c-25.282,-3.39 -79.164,-14.172 -139.749,-0.369c-35.938,8.188 -82.242,13.49 -118.293,32.378c-36.58,19.164 -62.669,52.214 -93.109,83.747c-28.465,29.486 -57.267,61.286 -78.348,100.461c-13.883,25.796 -22.385,46.198 -32.366,75.805c-9.486,28.143 -13.085,66.126 -17.054,113.428c-1.625,19.352 -7.926,40.281 -7.487,62.708c0.54,27.593 1.918,57.228 7.084,89.446c6.541,40.792 15.008,91.644 62.161,196.854c7.489,16.71 21.704,43.988 30.835,76.122c3.645,12.829 1.997,30.8 -4.944,53.911c-11.19,-14.243 -19.206,-25.829 -24.049,-34.758c-11.22,-20.685 -16.441,-40.908 -25.975,-60.439c-8.424,-17.258 -18.772,-33.606 -25.869,-49.586c-11.078,-24.945 -23.056,-49.973 -30.865,-70.701c-10.405,-27.618 -12.783,-49.4 -17.301,-66.75c-4.102,-15.752 -5.495,-35.889 -7.642,-51.348c-7.529,-54.241 0.211,-104.127 4.717,-150.848c2.887,-29.922 1.429,-58.894 3.685,-85.735c1.622,-19.311 8.381,-37.904 13.871,-55.78c16.974,-55.255 48.701,-104.607 97.815,-154.897c7.924,-8.112 15.711,-16.716 23.625,-25.538l-10.775,11.128c-0.275,-16.323 -2.277,-28.558 -6.003,-36.705c-3.557,-7.781 -7.168,-23.931 -14.072,-29.083c-24.472,-18.265 -32.906,-25.621 -31.681,-19.598c12.937,63.575 -109.234,69.376 -132.246,91.231c-25.984,24.679 -55.624,67.228 -90.21,95.908c-26.019,21.574 -58.807,31.535 -72.839,41.115c-44.58,30.434 -74.539,71.56 -82.193,93.407c-12.84,36.646 -15.815,70.554 -21.64,103.365c-2.28,12.84 -6.612,31.714 -12.993,56.618c-14.054,-31.628 -21.009,-57.035 -20.863,-76.222c0.077,-10.279 -7.726,-31.904 -6.181,-44.231c2.612,-20.833 4.335,-34.67 18.651,-87.264c14.316,-52.596 38.485,-57.838 55.654,-76.215c23.819,-25.492 77.245,-28.269 114.396,-66.619c37.15,-38.351 52.355,-72.325 89.493,-93.553c37.14,-21.229 86.344,-15.56 93.027,-18.205c6.683,-2.645 5.805,-8.773 -13.108,-13.425c-18.911,-4.652 -28.035,-1.711 -39.131,-0.103c-27.072,3.924 -23.872,10.091 -40.74,13.283c-16.868,3.192 -18.394,-17.891 40.861,-59.107c19.287,-13.415 49.066,-16.8 69.127,-17.221c41.571,-0.872 71.644,14.56 92.03,29.899c19.893,14.97 38.447,36.466 55.663,64.487c36.836,-37.434 82.3,-72.065 155.842,-83.639c115.217,-18.131 127.946,0.338 189.298,0.5c61.353,0.162 66.991,-23.788 201.4,-9.09c99.367,10.867 132.552,50.484 163.116,84.538c7.594,-2.034 12.462,-5.091 14.604,-9.173c2.106,-4.012 2.734,-14.038 5.02,-18.918c3.135,-6.693 0.133,-13.745 0.049,-18.373c-0.084,-4.645 1.911,-11.424 0.048,-18.204c-1.188,-4.326 0.061,-11.83 -4.917,-19.93c-3.374,-5.489 -8.018,-6.906 -11.723,-11.998c-3.705,-5.09 -27.789,-12.151 -6.576,-17.205c8.486,-2.021 17.898,-1.996 27.096,0.072Zm-521.079,437.961c1.641,0.909 11.723,8.631 12.976,9.545c18.755,13.662 42.184,50.507 60.363,140.284c12.003,59.274 10.373,142.139 -4.893,248.595c-5.515,38.469 -14.477,40.28 -26.883,5.436c7.85,-67.387 12.056,-114.025 12.621,-139.913c1.31,-60.124 -6.632,-101.384 -11.92,-125.298c-5.81,-26.276 -29.956,-82.75 -47.671,-103.884c-11.895,-14.192 -39.368,-29.519 -41.275,-34.782c-6.425,-17.729 29.423,-9.538 46.682,0.018Zm291.626,8.791c13.049,-9.278 61.154,-27.723 53.968,-8.319c-1.949,5.259 -29.691,19.15 -41.741,33.296c-17.944,21.067 -40.621,78.787 -46.61,105.067l-0.164,0.723c-5.45,24.022 -13.49,65.069 -12.501,124.674c0.405,24.37 3.952,67.114 10.644,128.234l1.319,11.929c-11.524,34.826 -19.96,32.966 -25.31,-5.581l-0.439,-3.194c-14.385,-105.14 -15.441,-187.056 -3.167,-245.752c18.779,-89.797 45.046,-127.6 64.001,-141.078Zm-853.738,40.95c10.587,-10.62 20.988,-15.563 18.638,-5.852c-3.069,12.685 -8.593,21.062 -12.562,34.72c-1.085,3.737 -4.696,9.973 -6.192,14.817c-2.769,8.967 -2.171,10.84 -3.956,20.299c-1.605,8.505 -4.976,16.433 -4.682,25.129c0.413,12.267 5.319,24.753 8.436,31.15c7.27,14.928 8.591,-0.254 18.654,-12.023c9.256,-10.825 26.876,-17.863 41.936,-15.804c22.405,3.066 8.795,5.576 -5.148,18.976c-5.618,5.401 -11.817,10.636 -14.92,21.376c-1.086,3.757 -3.516,8.382 -4.689,12.042c-1.925,6.004 -2.518,10.853 -3.429,15.705c-2.52,13.419 -0.786,22.444 -0.084,31.774c0.428,5.706 -0.652,12.298 -0.047,17.815c0.738,6.741 -16.746,-6.733 -26.311,-17.884c-8.315,-9.694 -14.833,-25.014 -19.554,-31.826c-3.702,-5.338 -0.054,20.434 -10.02,6.369c-9.968,-14.065 -8.044,-16.711 -12.209,-26.54c-3.125,-7.375 -2.852,-21.011 -4.836,-26.006c-6.876,-17.307 -7.385,-22.688 -4.844,-32.474c1.169,-4.498 2.982,-9.929 5.116,-17.877c2.711,-10.091 10.58,-22.21 19.294,-35.092c6.981,-10.318 14.311,-21.675 21.409,-28.796Zm497.097,16.11c13.376,2.813 32.67,13.928 39.79,24.536c24.275,36.169 45.975,102.382 38.204,108.575l-0.46,0.358c-7.401,5.623 -9.948,0.502 -45.566,-0.479c-20.739,-0.572 -48.878,14.943 -67.506,14.893c-20.824,-0.055 -50.635,-7.008 -61.338,-15.234c-37.69,-28.971 -47.672,-67.686 -46.431,-73.488c0.888,-4.153 17.82,-18.507 31.088,-29.107l0.93,-0.742c15.857,-12.621 26.903,-19.543 41.619,-26.475c25.479,-12.002 45.894,-7.838 69.67,-2.838Zm498.192,4.339l1.895,0.915c13.438,6.559 23.99,13.314 38.559,24.959l2.888,2.327c13.059,10.584 29.149,24.452 29.996,28.511c1.21,5.809 -8.977,44.47 -46.819,73.241c-10.746,8.169 -40.593,14.965 -61.417,14.909c-18.628,-0.049 -46.685,-15.713 -67.426,-15.25c-36.351,0.81 -38.288,6.111 -46.026,-0.122c-7.738,-6.234 14.311,-72.332 38.778,-108.372c7.175,-10.57 26.528,-21.583 39.919,-24.325l4.072,-0.829c22.097,-4.458 41.628,-7.403 65.582,4.035Zm98.446,-361.974c2.364,1.669 4.624,3.385 6.786,5.141l-33.644,-29.572c8.339,8.995 16.86,17.371 26.858,24.432Z"/><path id="Combined-Shape1" serif:id="Combined-Shape" d="M965.974,1094.062c16.226,-2.453 32.536,-3.658 48.928,-3.615c13.048,0.034 45.157,9.621 67.598,29.258c19.883,17.399 31.143,44.315 30.104,55.392c-1.042,11.116 -2.969,20.356 -5.559,28.104c-4.639,3.025 -24.867,9.712 -39.923,1.168c-13.968,-7.929 -14.944,-32.374 -35.699,-33.459l-1.356,-0.058c-19.482,-0.664 -21.357,7.346 -25.38,18.867c-1.593,4.563 -3.211,21.04 -0.076,28.8c2.894,7.161 9.988,12.949 17.611,14.646c19.253,4.284 43.252,2.612 59.977,0.159c8.648,-1.269 20.415,-7.553 18.445,-3.799c-1.97,3.754 -4.115,6.932 -6.391,9.645c-16.592,19.772 -40.145,14.83 -53.577,28.157l-1.363,1.366c-22.218,22.503 -42.219,53.473 -73.942,53.389c-18.24,-0.048 -20.438,-3.944 -36.778,-18.847l-1.357,-1.233c-11.901,-10.774 -14.295,-16.087 -26.893,-26.788c-13.504,-11.471 -33.937,-12.008 -43.923,-20.808c-6.521,-5.746 -13.556,-10.657 -18.371,-14.888l-0.486,-0.443c-3.019,-2.827 -8.441,-9.291 -4.707,-8.572l1.076,0.215c4.258,0.864 11.71,2.566 14.977,3.212c21.987,4.338 49.783,4.152 68.001,-4.89c15.25,-7.569 10.969,-40.451 3.038,-49.96c-4.501,-5.394 -11.078,-9.252 -20.305,-8.573l-0.648,0.054c-3.408,0.326 -8.103,1.016 -13.565,7.05c-7.903,8.732 -13.031,19.828 -21.607,24.949c-9.023,5.389 -21.397,6.447 -37.126,3.178l-0.783,-1.814c-3.815,-8.933 -6.155,-15.829 -7.019,-20.688c-2.702,-15.188 5.556,-43.294 28.696,-64.149c19.619,-17.682 51.245,-24.81 57.797,-26.271c18.298,-4.08 38.494,-3.665 60.587,1.248Zm-51.976,24.105c-14.923,1.109 -25.588,7.767 -32.69,14.166c-4.917,4.432 -7.422,22.256 17.352,17.043c8.269,-1.741 33.944,0.569 43.166,15.97c8.225,17.193 12.507,28.835 12.845,34.926c0.695,12.533 -5.415,40.087 -13.053,43.878c-9.049,4.49 -17.595,10.525 -7.31,22.178c9.378,10.625 15.846,16.168 31.989,16.211c15.26,0.04 20.658,-3.095 29.322,-11.692c2.989,-2.966 9.007,-8.227 8.264,-15.96c-0.335,-3.487 -2.517,-5.579 -10.844,-14.297c-7.007,-7.336 -14.569,-20.104 -15.738,-22.999c-2.774,-6.866 -4.534,-30.222 0.11,-41.71c4.164,-10.301 31.382,-34.503 56.918,-26.147c18.346,6.003 14.225,-10.637 7.132,-19.416c-5.5,-6.807 -33.258,-11.904 -38.3,-11.917c-14.502,-0.038 -22.094,5.052 -36.449,7.222c-11.885,-3.066 -32.599,-8.954 -52.712,-7.458Z"/><path id="Combined-Shape2" serif:id="Combined-Shape" d="M1235.375,550.806l2.206,1.105c7.144,3.612 12.201,6.46 15.172,8.548c7.681,5.397 13.262,11.603 15.767,15.833c5.907,9.975 5.713,25.77 4.037,35.643c-2.326,13.697 -10.459,25.438 -25.38,33.34c-2.8,1.483 -7.704,3.527 -13.341,5.247l-0.68,0.206c-2.423,0.72 -6.367,1.674 -11.832,2.863c16.479,-7.031 26.269,-16.171 29.37,-27.417l0.395,-1.411c1.716,-6.109 4.334,-14.947 5.155,-21.691l0.165,-1.518c0.252,-2.434 0.635,-6.304 0.424,-9.756c-0.128,-2.077 -0.64,-5.27 -1.538,-9.578c-4.164,3.165 -9.431,4.427 -15.799,3.786c-9.495,-0.956 -11.34,-7.283 -12.851,-11.611c-1.558,-4.466 -2.156,-10.847 0.044,-16.59c0.89,-2.321 3.785,-4.654 8.687,-6.998Zm-568.097,3.353c-3.685,4.87 -6.072,8.845 -7.165,11.924c-4.206,11.854 -4.731,26.018 -3.678,39.257c1.196,15.018 8.171,29.02 20.649,39.929c1.872,1.637 4.919,3.642 9.143,6.016l-3.642,-1.009c-7.638,-2.147 -12.821,-3.826 -15.548,-5.033c-7.332,-3.246 -10.369,-6.718 -13.366,-9.391l-0.529,-0.464c-11.195,-9.597 -14.655,-22.453 -14.737,-34.6l-0.002,-5.217c0.014,-6.293 0.224,-13.037 2.209,-17.866c2.959,-7.199 11.847,-15.046 26.665,-23.546Zm490.166,-1.348l-1.558,1.676c-4.176,4.538 -7.091,8.116 -8.747,10.735c-6.02,9.521 -8.965,19.615 -8.768,27.918l0.029,0.947c0.313,8.434 2.301,22.92 8.568,35.951c2.034,4.233 6.27,9.761 12.703,16.585c-4.119,-0.659 -7.672,-0.992 -10.659,-1l-0.721,0.004c-3.002,0.038 -7.473,0.348 -13.412,0.931c-5.423,-3.857 -9.583,-8.464 -12.476,-13.823c-2.893,-5.357 -4.881,-12.23 -5.963,-20.615l3.623,-7.358c1.298,-2.662 2.094,-4.344 2.39,-5.049l3.428,-8.391c3.661,-8.888 5.375,-12.526 8.585,-17.29l2.357,-3.438c2.497,-3.62 5.611,-7.959 8.945,-10.889c2.335,-2.052 6.226,-4.349 11.675,-6.892Zm-409.473,-3.605l2.157,0.954c8.393,3.749 13.92,6.744 16.584,8.983c5.152,4.333 8.188,9.668 10.142,13.709l0.612,1.296c3.043,6.568 7.465,13.975 11.691,23.18l0.488,1.07c1.213,2.693 2.845,7.161 4.894,13.402c-1.746,8.34 -3.676,14.573 -5.79,18.697c-2.113,4.124 -5.936,9.12 -11.472,14.987c-3.416,-0.472 -6.678,-0.71 -9.783,-0.719c-1.97,-0.005 -5.524,0.422 -9.028,0.634l-0.583,0.034c-1.216,0.065 -2.914,0.061 -5.096,-0.013c10.572,-12.256 17.015,-22.88 19.329,-31.872c1.459,-5.67 2.989,-14.342 2.347,-23.307c-0.251,-3.504 -1.361,-8.873 -3.332,-16.109l-0.472,0.983c-1.551,3.173 -2.887,5.303 -4.007,6.388c-4.038,3.916 -9.224,5.107 -13.71,5.095c-15.131,-0.04 -17.344,-14.453 -18.109,-17.807c-0.826,-3.634 0.281,-9.929 4.603,-14.638c1.367,-1.491 4.212,-3.14 8.534,-4.947Zm53.298,86.573c0.16,2.776 -0.134,4.624 -0.883,5.547c-0.749,0.921 -2.268,1.82 -4.557,2.7l5.441,-8.247Zm308.644,-0.006l5.544,8.64c-2.989,-0.619 -4.842,-1.515 -5.56,-2.683c-0.718,-1.169 -0.712,-3.154 0.016,-5.957Z" style="fill:#fff;"/></g></g></g></svg>