<?xml version="1.0" encoding="UTF-8" standalone="no"?><!DOCTYPE svg PUBLIC "-//W3C//DTD SVG 1.1//EN" "http://www.w3.org/Graphics/SVG/1.1/DTD/svg11.dtd"><svg width="100%" height="100%" viewBox="0 0 1886 1986" version="1.1" xmlns="http://www.w3.org/2000/svg" xmlns:xlink="http://www.w3.org/1999/xlink" xml:space="preserve" xmlns:serif="http://www.serif.com/" style="fill-rule:evenodd;clip-rule:evenodd;stroke-linejoin:round;stroke-miterlimit:2;"><g id="Artboard1"><ellipse cx="943" cy="984" rx="940" ry="941" style="fill:#fff;"/><rect x="140" y="193" width="1544.127" height="1626" style="fill:none;"/><g id="LOGO---PODSTAWA"><g><path id="Combined-Shape" d="M676.938,1310.369c7.711,11.437 17.349,27.581 24.278,42.503c5.869,12.639 7.872,24.955 10.218,37.667c1.719,9.313 6.748,34.467 5.525,46.866c-1.937,19.646 -9.838,38.65 -14.472,49.409c-3.494,8.112 -6.615,16.862 -11.949,25.544c-4.912,7.994 -12.108,16.165 -14.084,18.489c-2.317,2.723 -6.547,8.87 -11.494,12.742c-8.076,6.32 -17.731,9.622 -21.616,4.683c-6.266,-7.964 6.396,-41.537 0.105,-39.77c-5.371,1.509 -8.446,-15.852 -11.628,-17.275c-9.07,-4.056 -12.872,6.773 -25.477,61.402c-4.707,20.398 -10.429,39.047 -12.659,57.62c-1.585,13.2 0.285,26.064 -0.099,37.629c-0.364,10.968 5.064,18.114 5.742,27.092c1.24,16.415 5.348,35.48 9.906,42.845c4.323,6.984 4.692,18.855 5.821,31.592c1.456,16.416 -0.563,27.306 -16.001,29.067c-9.644,1.1 -26.187,1.422 -45.276,-11.28c-6.335,-4.215 -26.075,-11.838 -37.07,-15.367c-12.596,-4.041 -26.336,-13.592 -40.251,-19.541c-11.765,-5.031 -23.794,-14.686 -32.597,-20.532c-5.297,-3.518 -10.646,-9.994 -13.801,-13.636c-7.922,-9.147 -14.452,-14.324 -19.203,-23.645c-4.995,-9.8 -8.037,-23.733 -9.169,-32.816c-1.772,-14.198 2.6,-26.906 3.646,-36.714c1.075,-10.081 0.95,-17.543 0.05,-18.996c-1.006,-1.625 3.942,-2.083 8.599,9.064c5.253,12.57 11.002,37.92 23.819,55.598c4.36,6.015 12.918,13.8 17.886,19.779c5.079,6.113 15.724,13.629 20.882,19.25c9.414,10.257 31.876,14.375 38.937,20.862c5.604,5.15 13.954,8.465 16.991,9.769c7.991,3.431 13.25,9.74 20.492,11.89c7.72,2.291 13.386,0.124 13.531,-14.456c0.049,-4.847 -4.927,-13.427 -6.226,-21.31c-1.393,-8.442 0.782,-16.432 -2.458,-29.05c-2.688,-10.463 -2.683,-28.098 -3.696,-37.328c-1.006,-9.171 2.759,-26.171 3.886,-34.623c1.564,-11.729 0.281,-22.562 2.616,-30.707c4.398,-15.35 8.235,-30.598 12.71,-39.83c5.041,-10.395 8.263,-19.783 12.661,-30.01c9.968,-23.184 11.367,-27.16 20.604,-45.451c3.958,-7.836 20.589,-4.369 33.912,4.207c13.79,8.877 21.15,47.869 27.38,17.65c2.647,-12.839 7.642,-21.314 8.782,-29.785c1.141,-8.488 1.389,-23.224 -0.015,-31.608c-1.172,-6.998 -2.171,-17.172 -3.932,-27.205c-3.669,-20.905 -4.181,-40.399 -10.041,-54.417c-1.604,-3.835 -3.873,-14.99 -6.452,-24.87c-2.292,-8.776 -4.954,-16.448 -5.663,-18.619c-3.75,-11.486 11.763,3.986 26.351,25.624Zm554.616,-17.497c-5.421,-10.095 8.683,-3.209 12.419,12.159c5.023,20.665 11.308,76.947 13.376,87.187c0.607,3.006 1.851,6.102 3.731,9.291c2.607,4.419 15.658,26.046 22.384,48.475c3.408,11.36 3.366,27.258 -2.052,38.068c-4.473,8.923 2.554,7.226 17.578,-4.128c12.442,-9.402 28.902,-31.223 38.149,-31.339c5.445,-0.068 30.386,15.505 42.523,71.73c5.088,23.563 -2.266,76.249 3.376,102.647c2.317,10.836 11.572,28.142 15.136,43.23c3.552,15.037 9.078,30.405 2.132,43.749c-6.946,13.344 -10.141,16.331 35.751,-15.667c9.32,-6.498 27.413,-17.746 39.367,-28.791c13.523,-12.493 17.804,-23.863 35.613,-42.184c11.135,-11.454 20.01,-38.749 34.52,-71.257c5.578,-12.5 14.769,-30.986 24.978,-59.02c4.902,-13.462 14.551,-20.436 10.538,-45.078c-4.013,-24.642 13.928,-0.15 15.542,8.358c5.815,30.65 -6.777,50.502 -8.676,58.914c-4.76,21.084 -8.332,40.109 -15.376,57.279c-10.975,26.761 -12.562,52.081 -24.435,73.02c-12.395,21.858 -31.016,42.376 -47.936,55.487c-24.518,18.997 -55.717,25.173 -84.052,47.693c-11.26,8.948 -22.869,14.344 -33.234,17.026c-15.11,3.912 -27.574,2.059 -32.444,-2.945c-3.742,-3.846 -3.001,-9.553 4.468,-15.936c7.432,-6.35 8.066,-26.615 8.159,-56.529l0.007,-2.802c0.025,-11.535 -13.054,-34 -15.761,-58.563c-1.087,-9.867 -0.215,-27.687 0.125,-47.334c0.134,-7.691 0.167,-19.89 0.097,-36.601c-4.195,-30.269 -10.76,-46.628 -19.692,-49.074c-6.305,-1.726 -31.214,20.358 -56.9,39.435c-10.705,7.951 -37.9,19.476 -27.612,-0.073c2.927,-5.561 10.104,-34.554 9.284,-65.485c-0.214,-8.051 -6.394,-26.946 -13.493,-42.605c-6.128,-13.514 -13.132,-23.122 -15.296,-39.08c-1.776,-13.096 6.785,-31.956 7.48,-57.926c0.337,-12.627 5.648,-31.235 0.226,-41.331Zm-1029.03,-566.599c5.503,29.129 8.733,49.086 9.691,59.869c2.03,22.831 -1.396,37.143 0.941,48.807c6.033,30.123 16.405,59.318 26.018,88.175c10.613,31.861 14.876,63.165 21.51,91.931c7.127,30.905 3.549,41.218 4.828,67.32c0.854,17.416 -3.71,46.241 -5.177,64.782c-2.442,30.881 -6.593,51.78 -8.096,82.776c-0.463,9.545 -0.919,42.615 -0.137,51.787c1.596,18.713 7.257,36.755 12.743,52.938c15.994,47.175 52.172,94.902 68.652,153.989c8.05,28.863 10.343,75.539 16.937,89.718c2.587,5.559 7.867,-23.807 21.835,-35.877c13.968,-12.071 31.141,-17.3 29.121,-14.187c-6.056,9.332 -12.237,12.846 -17.859,31.817c-3.288,11.101 -6.118,39.053 -11.496,70.534c-1.015,5.949 -3.126,13.472 -6.328,22.568c-9.81,-2.715 -16.485,-5.394 -20.024,-8.036c-10.785,-8.053 -16.486,-19.908 -20.049,-27.588c-6.26,-13.493 -8.859,-16.353 -11.635,-32.005c-1.603,-9.039 -3.637,-31.565 -5.509,-39.089c-7.344,-29.539 -16.153,-48.467 -23.577,-62.119c-7.378,-13.567 -12.591,-30.797 -19.73,-42.589c-8.856,-14.627 -16.112,-24.343 -24.165,-36.096c-18.342,-26.768 -17.837,-50.585 -23.223,-71.164c-7.386,-28.231 -14.566,-44.429 -16.692,-69.993c-2.261,-27.173 7.846,-63.503 9.397,-87.056c0.72,-10.92 7.585,-44.566 7.898,-71.02c0.415,-34.918 -5.931,-63.591 -6.839,-73.103c-1.34,-14.044 2.236,-35.001 0.124,-46.732c-2.514,-13.96 -5.199,-28.31 -8.235,-39.909c-5.98,-22.845 -16.996,-42.223 -21.409,-61.637c-4.738,-20.837 -8.61,-38.977 -5.858,-64.931c1.864,-17.586 2.21,-39.305 6.322,-53.167c3.492,-11.776 10.167,-25.347 20.024,-40.713Zm199.147,308.217l1.608,3.811c1.192,13.473 6.032,34.057 -1.867,54.933c-7.898,20.877 -15.81,42.431 -15.475,55.555c0.336,13.18 4.988,17.43 10.075,28.897c5.995,13.515 17.524,33.718 22.396,48.961c2.826,8.839 3.449,24.389 4.336,40.813c0.686,12.722 5.897,31.405 9.212,58.204c4.346,35.133 39.637,61.052 44.362,62.37c7.185,2.004 -5.774,-13.35 0.121,-45.668c5.062,-27.75 21.258,-42.853 28.21,-53.577l-1.164,2.84l-2.229,5.399c-6.568,16.001 -0.105,39.539 -0.169,63.941c-0.045,16.947 -2.729,35.537 3.231,53.201c5.565,16.492 0.21,37.353 -9.759,37.327c-20.643,-0.055 -33.302,-26.99 -50.539,-45.029c-13.031,-13.635 -33.475,-39.126 -40.369,-54.979c-7.037,-16.18 -8.805,-27.023 -14.155,-63.004c-1.646,-11.064 1.334,-29.04 0.098,-36.892c-1.748,-11.106 -5.048,-21.082 -8.972,-30.401c-4.559,-10.828 -16.585,-20.797 -21.374,-30.591l-0.751,-1.538c-6.39,-13.067 -12.59,-25.936 -12.96,-40.38c-0.316,-12.269 7.401,-32.847 13.945,-46.474c7.939,-16.529 23.435,-26.118 31.386,-40.646c5.465,-9.984 9.629,-18.979 10.698,-26.271l0.106,-0.801Zm231.869,108.7c-3.043,-18.319 8.111,-97.832 21.143,-18.117c2.979,18.217 7.532,32.19 11.393,46.809c4.011,15.184 6.769,30.85 11.911,46.927c5.206,16.273 10.923,28.832 17.095,40.687c3.011,5.783 16.851,20.117 30.155,34.874c14.097,15.637 34.856,26.162 41.506,30.935c15.911,11.416 33.889,8.402 55.346,9.926c13.069,0.928 40.626,4.459 67.09,-4.239c13.063,-4.294 31.027,-15.384 53.894,-33.271c16.241,17.113 27.502,27.672 33.785,31.68c8.361,5.333 14.359,9.7 22.502,13.235c15.445,6.703 32.081,7.186 49.477,6.252c14.923,-0.801 33.799,-6.649 56.365,-12.909c22.568,-6.262 43.223,-25.747 49.158,-32.742c10.815,-12.744 14.581,-22.975 25.041,-42.461c4.988,-9.293 11.163,-16.451 17.368,-30.17c10.667,-23.585 10.45,-49.123 11.6,-58.527c0.901,-7.368 15.815,7.925 15.739,25.814c-0.087,18.218 -6.448,39.272 -11.32,55.258c-3.215,10.548 -6.17,19.362 -13.163,33.432c-7.011,14.108 -12.344,18.37 -28.856,41.41c-16.203,22.609 -49.699,36.476 -59.408,39.878c-7.74,7.935 -13.688,13.571 -17.842,16.908c-19.688,15.811 -35.73,24.264 -43.623,28.348c-25.088,12.978 -57.37,20.938 -91.489,22.95c-41.402,2.442 -95.812,-3.595 -126.39,-20.241c-11.09,-6.038 -38.624,-32.972 -10.47,-28.131c11.454,1.969 27.315,12.056 44.24,14.287c24.675,3.251 52.993,9.947 76.748,8.538c13.709,-0.813 46.273,-6.533 62.38,-10.43c9.425,-2.28 23.012,-8.416 40.761,-18.407c-12.959,-0.569 -46.052,-3.863 -53.9,-5.884c-13.272,-3.417 -26.831,-6.766 -36.885,-17.481c-3.146,-3.353 -7.13,-6.525 -11.952,-9.516c-20.505,10.553 -40.163,17.967 -58.977,22.244c-18.813,4.276 -48.342,4.198 -88.586,-0.234c-42.169,-8.721 -76.401,-30.367 -102.694,-64.936c-11.087,-14.576 -28.21,-37.368 -35.872,-61.115c-6.37,-19.742 -15.542,-55.05 -23.272,-101.582Zm865.314,49.92c-0.015,5.823 -2.442,26.111 -2.021,29.627c1.304,10.892 1.656,22.706 6.217,31.337c6.825,12.911 9.373,24.573 14.557,37.115c7.012,31.442 5.057,57.705 -5.868,78.79c-6.13,11.831 -22.304,28.583 -37.625,39.601c-11.901,8.559 -33.034,23.708 -37.719,19.614c-2.632,-2.3 -0.681,-15.647 -2.3,-24.434c-1.215,-6.598 -2.786,-13.688 -2.477,-18.958c0.234,-3.98 1.465,-13.98 0.058,-21.883c-0.732,-4.112 -2.935,-10.123 -6.61,-18.032c5.845,3.673 24.542,-1.445 29.217,17.001c1.304,5.146 3.717,35.979 27.768,1.164c7.032,-10.178 7.817,-49.929 4.411,-63.314c-3.626,-14.252 -5.706,-27.861 -8.245,-43.003l-0.241,-1.474c-2.021,-12.688 -6.617,-20.679 0.34,-35.997c0.872,-1.921 20.554,-32.979 20.538,-27.155Zm96.627,-711.535c-12.413,-14.027 37.52,8.391 62.471,47.325c7.605,11.869 5.614,25.177 10.011,39.374c5.273,17.022 10.7,35.387 12.868,55.166c2.147,19.582 0.284,44.153 -1.17,71.963c-0.802,15.318 -2.211,37.664 -6.54,54.274c-6.55,25.128 -14.744,48.351 -22.132,74.683c-6.15,21.916 -7.091,54.477 -7.158,79.837c-0.058,21.782 11.362,58.672 19.712,125.202c1.638,13.056 4.194,33.85 4.091,48.379c-0.188,26.61 -0.151,57.247 -0.24,90.813c-0.058,22.107 -4.745,41.822 -11.297,61.855c-10.262,31.373 -5.238,70.848 -37.135,104.83c-9.889,10.535 -17.539,11.142 -27.942,32.151c-5.136,10.371 -12.463,-6.408 -3.444,-28.118c7.961,-19.16 21.179,-29.182 25.848,-41.135c6.856,-17.555 1.475,-49.339 6.735,-63.856c9.614,-26.527 7.421,-48.45 7.467,-65.833c0.015,-5.543 -0.702,-30.928 -2.512,-56.985l-0.112,-1.596c-1.122,-15.772 -3.006,-31.22 -4.398,-43.693c-2.385,-21.378 -6.12,-41.347 -11.387,-62.742c-5.433,-22.067 -12.401,-45.697 -14.912,-76.955c-0.872,-10.859 3.69,-22.193 3.281,-34.946c-0.84,-26.228 -0.791,-50.869 6.131,-80.187c3.794,-16.066 12.263,-35.426 17.699,-52.819c4.357,-13.942 13.09,-29.345 17.816,-44.26c9.17,-28.935 6.341,-58.704 5.242,-90.959c-0.773,-22.708 -1.984,-53.67 -12.381,-76.596c-13.924,-30.708 -24.2,-51.145 -36.612,-65.172Zm-120.445,430.044c-2.474,-12.065 5.788,-10.895 12.344,0.033c5.116,8.526 8.238,23.539 11.611,38.693l0.376,1.684c1.923,8.587 6.198,18.071 5.787,27.16c-0.697,15.441 -7.731,29.702 -10.628,36.213c-5.009,11.262 -20.574,36.1 -31.71,45.552c-8.345,7.082 -56.612,36.41 -55.28,25.437c0.615,-5.072 6.851,-18.612 8.631,-30.927c2.073,-14.327 -5.759,-44.873 -8.413,-51.621c-2.656,-6.748 8.303,-11.063 20.727,11.384c4.384,7.921 5.287,32.02 16.365,19.978l0.688,-0.763c7.529,-8.515 18.421,-30.296 23.415,-41.522c5.493,-12.351 13.513,-45.077 6.087,-81.3Zm-233.002,-715.21c6.759,1.521 15.108,3.685 21.78,7.638c4.953,2.935 10.243,6.142 14.968,9.5c4.962,3.526 9.633,10.275 15.233,16.723c3.228,3.719 9.238,9.124 14.558,17.123c3.552,5.341 10.651,16.191 17.476,8.45c1.474,-1.671 8.332,-8.813 16.699,-15.88c5.878,-4.964 15.076,-11.292 25.662,-14.512c8.625,-2.625 17.401,-6.086 31.247,-4.757c3.164,0.305 11.727,-0.339 15.195,0.04c8.288,0.908 15.074,5.888 21.441,9.911c12.072,7.627 19.785,12.083 31.244,22.968c3.049,2.897 8.395,9.099 13.067,17.803c1.844,3.434 5.751,15.362 -3.805,9.707c-1.773,-1.049 -21.829,-9.039 -36.746,-9.815c-17.138,-0.891 -29.465,5.624 -32.491,7.733c-2.791,1.947 -10.579,6.54 -13.212,11.231c-3.126,5.569 -4.445,12.681 -2.067,17.325c2.939,5.744 9.269,11.076 17.977,11.099c1.641,0.004 17.193,-0.488 32.076,2.474c4.005,0.797 16.735,1.818 27.752,4.472c10.839,2.612 19.97,6.847 23.714,8.841c3.928,2.091 19.98,7.164 31.477,15.273c11.794,8.318 19.007,19.663 20.513,21.038c3.4,3.103 3.266,9.971 8.346,29.195c1.485,5.623 -3.146,35.76 -8.469,17.484c-5.323,-18.276 -11.227,-17.915 -20.495,-28.113c-9.266,-10.199 -48.103,-26.457 -61.057,-31.958c-6.309,-2.679 -19.18,-5.345 -34.776,-4.303c-10.808,0.722 -34.77,1.197 -67.904,-12.054c-33.134,-13.252 -22.174,-39.484 -22.153,-47.41c0.03,-11.233 -19.442,19.873 -27.577,16.029c-5.719,-2.702 -14.504,-21.078 -17.868,-13.188c-3.29,7.715 -12.136,18.902 -26.535,33.562l-4.986,-4.386c29.681,28.228 33.458,65.306 45.505,74.006c4.044,2.919 9.85,4.905 16.686,0.044c5.051,-3.593 8.704,-13.061 17.525,-13.037c20.757,0.055 14.119,55.231 16.939,65.464c2.059,7.469 16.346,19.987 22.183,33.373c9.129,20.93 7.944,41.488 -13.546,27.699c-16.036,-10.291 3.968,134.92 -0.432,163.57c-8.991,58.545 -8.669,120.055 -39.629,170.735c-95.288,155.98 -15.38,109.806 -86.07,215.711c-5.974,8.952 -5.972,-42.214 -3.903,-57.141c2.958,-21.334 -1.878,-25.596 13.585,-62.104c6.792,-16.036 8.727,-32.709 16.147,-51.099c7.007,-17.368 20.137,-36.167 28.091,-55.487c8.296,-20.15 17.014,-40.879 22.483,-62.498c5.183,-20.486 7.085,-42.563 7.614,-65.175c0.361,-15.403 9.426,-33.312 9.113,-48.877c-0.312,-15.552 -4.368,-28.745 -4.149,-43.791c0.066,-4.565 -3.768,-24.38 -6.423,-39.245c-1.969,-11.02 -2.389,-15.732 -4.821,-28.327c-2.339,-12.112 -9.722,-26.015 -11.694,-36.429c-2.68,-14.159 0.372,-23.454 0.073,-27.734c-0.815,-11.709 29.176,11.371 27.477,0.073c-0.457,-3.046 -11.267,-10.845 -10.738,-20.264c0.724,-12.9 5.967,-28.177 0.085,-32.194c-6.414,-4.379 -25.653,28.654 -30.213,10.627c-4.56,-18.028 -12.93,-19.392 -20.632,-35.646c-16.589,-35.005 -40.479,-75.267 -75.113,-98.237c-21.338,-14.152 -36.011,-22.365 -55.094,-30.553c-19.698,-8.452 -43.734,-16.707 -61.2,-20.468c-22.875,-4.927 -61.915,-5.657 -81.303,-5.889c-37.142,-0.445 -50.263,13.037 -76.685,9.493c-20.699,-2.776 -64.814,-11.603 -114.417,-0.302c-29.424,6.704 -67.334,11.045 -96.85,26.508c-29.949,15.69 -51.309,42.749 -76.231,68.566c-23.305,24.142 -46.886,50.177 -64.146,82.25c-11.366,21.12 -18.327,37.824 -26.499,62.064c-7.767,23.041 -10.713,54.139 -13.963,92.867c-1.33,15.844 -6.49,32.979 -6.13,51.341c0.442,22.591 1.571,46.855 5.8,73.232c5.355,33.397 12.288,75.032 50.893,161.171c6.131,13.681 17.77,36.015 25.246,62.324c2.984,10.504 1.635,25.217 -4.048,44.138c-9.161,-11.661 -15.725,-21.147 -19.689,-28.457c-9.186,-16.936 -13.461,-33.492 -21.267,-49.483c-6.897,-14.13 -15.369,-27.515 -21.18,-40.598c-9.07,-20.423 -18.877,-40.914 -25.27,-57.885c-8.519,-22.611 -10.466,-40.445 -14.165,-54.65c-3.359,-12.896 -4.499,-29.384 -6.256,-42.04c-6.164,-44.409 0.173,-85.252 3.862,-123.504c2.363,-24.498 1.17,-48.218 3.017,-70.194c1.328,-15.81 6.862,-31.033 11.357,-45.669c13.897,-45.239 39.873,-85.645 80.084,-126.819c6.487,-6.642 12.863,-13.686 19.343,-20.909l-8.822,9.111c-0.225,-13.364 -1.864,-23.381 -4.915,-30.052c-2.913,-6.37 -5.869,-19.593 -11.521,-23.811c-20.036,-14.954 -26.941,-20.977 -25.938,-16.046c10.592,52.051 -89.433,56.8 -108.274,74.694c-21.274,20.205 -45.541,55.041 -73.858,78.523c-21.302,17.663 -48.147,25.819 -59.636,33.662c-36.499,24.917 -61.027,58.588 -67.294,76.475c-10.512,30.003 -12.948,57.765 -17.718,84.628c-1.867,10.513 -5.413,25.965 -10.638,46.355c-11.506,-25.895 -17.201,-46.696 -17.081,-62.405c0.063,-8.415 -6.325,-26.121 -5.06,-36.213c2.139,-17.056 3.549,-28.385 15.27,-71.446c11.721,-43.062 31.509,-47.354 45.566,-62.399c19.501,-20.871 63.243,-23.145 93.659,-54.543c30.416,-31.399 42.864,-59.215 73.271,-76.595c30.408,-17.381 70.693,-12.74 76.164,-14.905c5.471,-2.166 4.752,-7.183 -10.732,-10.992c-15.483,-3.809 -22.953,-1.401 -32.037,-0.085c-22.165,3.212 -19.544,8.262 -33.355,10.875c-13.81,2.613 -15.06,-14.648 33.454,-48.392c15.791,-10.983 40.172,-13.755 56.596,-14.099c34.036,-0.714 58.657,11.921 75.348,24.479c16.287,12.257 31.478,29.856 45.573,52.798c30.159,-30.648 67.382,-59.002 127.592,-68.478c94.332,-14.845 104.754,0.277 154.985,0.41c50.232,0.133 54.847,-19.476 164.892,-7.442c81.355,8.897 108.524,41.333 133.548,69.214c6.217,-1.666 10.203,-4.168 11.956,-7.51c1.724,-3.285 2.238,-11.493 4.11,-15.488c2.567,-5.48 0.109,-11.253 0.04,-15.042c-0.069,-3.803 1.565,-9.353 0.039,-14.905c-0.973,-3.542 0.05,-9.685 -4.026,-16.317c-2.763,-4.494 -6.564,-5.655 -9.598,-9.823c-3.034,-4.168 -22.752,-9.949 -5.384,-14.087c6.948,-1.654 14.654,-1.634 22.184,0.059Zm-426.623,358.572c1.343,0.744 9.598,7.067 10.624,7.815c15.356,11.185 34.538,41.352 49.421,114.855c9.827,48.53 8.492,116.373 -4.006,203.533c-4.515,31.495 -11.853,32.979 -22.01,4.45c6.427,-55.172 9.871,-93.356 10.333,-114.551c1.073,-49.225 -5.43,-83.006 -9.759,-102.586c-4.757,-21.513 -24.526,-67.75 -39.03,-85.053c-9.739,-11.619 -32.232,-24.168 -33.793,-28.477c-5.261,-14.516 24.089,-7.809 38.22,0.015Zm238.763,7.197c10.683,-7.596 50.069,-22.698 44.185,-6.811c-1.595,4.306 -24.309,15.678 -34.174,27.261c-14.692,17.248 -33.258,64.505 -38.161,86.022l-0.134,0.592c-4.462,19.668 -11.045,53.274 -10.235,102.075c0.331,19.953 3.236,54.949 8.714,104.989l1.08,9.766c-9.435,28.513 -16.342,26.99 -20.722,-4.569l-0.36,-2.615c-11.778,-86.081 -12.642,-153.149 -2.593,-201.205c15.375,-73.519 36.881,-104.47 52.4,-115.505Zm-698.982,33.527c8.668,-8.695 17.183,-12.742 15.259,-4.791c-2.512,10.386 -7.036,17.244 -10.285,28.426c-0.888,3.06 -3.845,8.165 -5.069,12.131c-2.267,7.342 -1.777,8.875 -3.239,16.619c-1.314,6.963 -4.074,13.454 -3.833,20.574c0.338,10.043 4.355,20.266 6.906,25.504c5.952,12.222 7.034,-0.208 15.273,-9.844c7.578,-8.863 22.004,-14.625 34.334,-12.939c18.344,2.51 7.2,4.566 -4.215,15.536c-4.6,4.422 -9.675,8.708 -12.216,17.502c-0.889,3.076 -2.879,6.863 -3.839,9.859c-1.576,4.915 -2.061,8.885 -2.807,12.858c-2.063,10.986 -0.643,18.376 -0.069,26.015c0.351,4.671 -0.534,10.069 -0.039,14.585c0.605,5.519 -13.711,-5.513 -21.542,-14.642c-6.807,-7.936 -12.144,-20.48 -16.01,-26.057c-3.031,-4.371 -0.044,16.73 -8.204,5.215c-8.161,-11.515 -6.586,-13.682 -9.996,-21.729c-2.559,-6.038 -2.335,-17.202 -3.959,-21.292c-5.629,-14.17 -6.046,-18.575 -3.966,-26.588c0.957,-3.683 2.441,-8.129 4.189,-14.636c2.219,-8.262 8.662,-18.184 15.796,-28.731c5.716,-8.448 11.717,-17.746 17.528,-23.576Zm406.988,13.19c10.952,2.303 26.748,11.404 32.577,20.088c19.875,29.613 37.641,83.824 31.279,88.894l-0.377,0.293c-6.06,4.604 -8.145,0.411 -37.307,-0.393c-16.979,-0.469 -40.018,12.234 -55.269,12.194c-17.049,-0.045 -41.457,-5.738 -50.219,-12.473c-30.858,-23.72 -39.03,-55.416 -38.014,-60.167c0.727,-3.4 14.589,-15.152 25.453,-23.83l0.762,-0.608c12.982,-10.333 22.026,-16 34.075,-21.676c20.86,-9.827 37.575,-6.417 57.041,-2.323Zm407.886,3.552l1.552,0.749c11.002,5.37 19.642,10.9 31.569,20.435l2.365,1.905c10.692,8.665 23.866,20.019 24.559,23.343c0.991,4.756 -7.349,36.409 -38.332,59.965c-8.798,6.689 -33.235,12.252 -50.284,12.207c-15.251,-0.04 -38.222,-12.864 -55.204,-12.486c-29.762,0.663 -31.348,5.003 -37.683,-0.1c-6.335,-5.104 11.717,-59.22 31.748,-88.727c5.875,-8.654 21.719,-17.67 32.683,-19.916l3.334,-0.679c18.091,-3.65 34.082,-6.061 53.694,3.304Zm80.601,-296.36c1.935,1.367 3.786,2.771 5.556,4.209l-27.545,-24.212c6.828,7.365 13.804,14.222 21.989,20.003Z"/><path id="Combined-Shape1" serif:id="Combined-Shape" d="M945.873,1074.742c13.285,-2.008 26.638,-2.995 40.059,-2.96c10.683,0.028 36.971,7.877 55.345,23.954c16.279,14.245 25.497,36.282 24.647,45.351c-0.853,9.101 -2.431,16.666 -4.551,23.01c-3.798,2.477 -20.359,7.952 -32.686,0.956c-11.436,-6.492 -12.235,-26.505 -29.228,-27.394l-1.11,-0.048c-15.95,-0.544 -17.485,6.015 -20.78,15.447c-1.304,3.736 -2.629,17.226 -0.062,23.58c2.369,5.863 8.177,10.601 14.419,11.991c15.763,3.508 35.412,2.138 49.105,0.13c7.08,-1.039 16.714,-6.184 15.101,-3.11c-1.613,3.074 -3.369,5.675 -5.233,7.897c-13.584,16.188 -32.868,12.142 -43.865,23.053l-1.116,1.119c-18.191,18.424 -34.566,43.78 -60.539,43.711c-14.933,-0.039 -16.734,-3.229 -30.111,-15.431l-1.111,-1.01c-9.744,-8.821 -11.704,-13.171 -22.018,-21.932c-11.056,-9.392 -27.786,-9.831 -35.961,-17.036c-5.339,-4.704 -11.099,-8.725 -15.041,-12.189l-0.398,-0.363c-2.472,-2.314 -6.911,-7.607 -3.854,-7.018l0.881,0.176c3.486,0.707 9.587,2.101 12.262,2.629c18.001,3.552 40.759,3.399 55.675,-4.003c12.486,-6.197 8.981,-33.118 2.487,-40.904c-3.685,-4.416 -9.07,-7.575 -16.625,-7.019l-0.531,0.045c-2.79,0.267 -6.634,0.832 -11.106,5.772c-6.47,7.149 -10.669,16.233 -17.69,20.426c-7.387,4.412 -17.518,5.279 -30.396,2.602l-0.641,-1.485c-3.123,-7.314 -5.039,-12.959 -5.747,-16.938c-2.212,-12.435 4.549,-35.446 23.494,-52.521c16.062,-14.476 41.956,-20.313 47.32,-21.509c14.981,-3.34 31.516,-3 49.605,1.022Zm-42.554,19.736c-12.218,0.908 -20.95,6.359 -26.765,11.599c-4.026,3.629 -6.077,18.222 14.206,13.954c6.77,-1.425 27.791,0.466 35.341,13.075c6.734,14.076 10.24,23.608 10.517,28.595c0.569,10.261 -4.434,32.821 -10.687,35.925c-7.408,3.676 -14.406,8.617 -5.985,18.157c7.678,8.699 12.973,13.237 26.19,13.272c12.494,0.033 16.913,-2.534 24.007,-9.573c2.447,-2.429 7.375,-6.736 6.766,-13.067c-0.274,-2.855 -2.061,-4.568 -8.878,-11.705c-5.737,-6.006 -11.928,-16.46 -12.885,-18.83c-2.271,-5.621 -3.712,-24.743 0.09,-34.149c3.409,-8.434 25.694,-28.249 46.601,-21.407c15.021,4.915 11.647,-8.709 5.839,-15.896c-4.503,-5.573 -27.23,-9.746 -31.358,-9.757c-11.874,-0.031 -18.089,4.136 -29.842,5.913c-9.73,-2.51 -26.69,-7.331 -43.157,-6.106Z"/><path id="Combined-Shape2" serif:id="Combined-Shape" d="M1166.44,629.962l1.806,0.905c5.849,2.957 9.989,5.289 12.422,6.998c6.288,4.418 10.858,9.499 12.909,12.963c4.836,8.167 4.678,21.098 3.305,29.182c-1.905,11.214 -8.563,20.827 -20.78,27.296c-2.293,1.214 -6.308,2.888 -10.923,4.296l-0.557,0.168c-1.984,0.589 -5.213,1.371 -9.687,2.344c13.492,-5.757 21.507,-13.239 24.047,-22.447l0.323,-1.155c1.405,-5.002 3.548,-12.237 4.221,-17.759l0.135,-1.243c0.207,-1.993 0.52,-5.162 0.347,-7.988c-0.105,-1.701 -0.524,-4.315 -1.26,-7.841c-3.409,2.591 -7.721,3.625 -12.935,3.1c-7.774,-0.783 -9.285,-5.963 -10.522,-9.507c-1.275,-3.657 -1.765,-8.881 0.036,-13.583c0.729,-1.9 3.099,-3.81 7.112,-5.73Zm-465.119,2.745c-3.017,3.987 -4.971,7.242 -5.866,9.763c-3.444,9.705 -3.874,21.302 -3.011,32.141c0.979,12.295 6.69,23.759 16.906,32.691c1.533,1.34 4.027,2.982 7.486,4.926l-2.982,-0.826c-6.253,-1.758 -10.497,-3.132 -12.73,-4.121c-6.003,-2.658 -8.49,-5.5 -10.943,-7.689l-0.433,-0.38c-9.166,-7.858 -11.999,-18.383 -12.065,-28.328l-0.002,-4.271c0.011,-5.153 0.183,-10.673 1.809,-14.628c2.422,-5.894 9.7,-12.319 21.831,-19.277Zm401.314,-1.103l-1.276,1.372c-3.419,3.715 -5.805,6.645 -7.161,8.789c-4.929,7.795 -7.34,16.06 -7.179,22.857l0.024,0.775c0.256,6.905 1.884,18.765 7.015,29.434c1.666,3.466 5.134,7.992 10.4,13.579c-3.373,-0.539 -6.282,-0.812 -8.727,-0.819l-0.59,0.003c-2.458,0.031 -6.118,0.285 -10.981,0.762c-4.44,-3.158 -7.846,-6.93 -10.214,-11.317c-2.369,-4.386 -3.996,-10.013 -4.882,-16.879l2.966,-6.024c1.063,-2.18 1.714,-3.557 1.957,-4.134l2.807,-6.87c2.998,-7.277 4.401,-10.256 7.029,-14.156l1.93,-2.815c2.045,-2.964 4.594,-6.516 7.323,-8.915c1.912,-1.68 5.098,-3.561 9.559,-5.643Zm-335.248,-2.952l1.766,0.781c6.871,3.07 11.397,5.521 13.578,7.355c4.218,3.547 6.704,7.916 8.304,11.224l0.501,1.061c2.492,5.377 6.111,11.442 9.571,18.978l0.399,0.876c0.993,2.205 2.33,5.863 4.007,10.973c-1.43,6.829 -3.01,11.931 -4.74,15.308c-1.73,3.377 -4.86,7.467 -9.392,12.27c-2.797,-0.386 -5.467,-0.582 -8.009,-0.588c-1.613,-0.004 -4.523,0.345 -7.392,0.519l-0.477,0.027c-0.995,0.054 -2.386,0.05 -4.172,-0.011c8.655,-10.034 13.931,-18.732 15.825,-26.095c1.195,-4.642 2.447,-11.742 1.922,-19.082c-0.205,-2.868 -1.114,-7.265 -2.728,-13.189l-0.386,0.805c-1.27,2.598 -2.364,4.342 -3.281,5.23c-3.306,3.206 -7.552,4.181 -11.225,4.171c-12.388,-0.033 -14.2,-11.833 -14.826,-14.579c-0.676,-2.975 0.23,-8.129 3.769,-11.984c1.119,-1.221 3.448,-2.571 6.987,-4.05Zm43.637,70.88c0.131,2.272 -0.11,3.786 -0.723,4.541c-0.613,0.754 -1.857,1.49 -3.731,2.211l4.454,-6.752Zm252.696,-0.005l4.539,7.074c-2.447,-0.507 -3.964,-1.24 -4.552,-2.197c-0.588,-0.957 -0.583,-2.582 0.013,-4.877Z" style="fill:#fff;"/></g></g></g></svg>