<?xml version="1.0" encoding="UTF-8" standalone="no"?>
<!DOCTYPE svg PUBLIC "-//W3C//DTD SVG 1.1//EN" "http://www.w3.org/Graphics/SVG/1.1/DTD/svg11.dtd">
<svg width="100%" height="100%" viewBox="0 0 1886 1986" version="1.1" xmlns="http://www.w3.org/2000/svg" xmlns:xlink="http://www.w3.org/1999/xlink" xml:space="preserve" xmlns:serif="http://www.serif.com/" style="fill-rule:evenodd;clip-rule:evenodd;stroke-linejoin:round;stroke-miterlimit:2;">
    <g id="Artboard1" transform="matrix(1,0,0,1,5,1)">
        <rect x="-5" y="-1" width="1886" height="1986" style="fill:none;"/>
        <g id="LOGO---PODSTAWA">
            <g transform="matrix(1.421533,0.003758,-0.003707,1.402283,21.827438,15.292217)">
                <path id="Combined-Shape" d="M432.121,972.657C438.772,982.601 447.09,996.64 453.077,1009.621C458.148,1020.616 459.897,1031.339 461.942,1042.406C463.44,1050.514 467.818,1072.411 466.796,1083.214C465.176,1100.33 458.431,1116.901 454.474,1126.283C451.49,1133.357 448.829,1140.985 444.265,1148.559C440.063,1155.533 433.898,1162.667 432.206,1164.695C430.221,1167.072 426.601,1172.436 422.359,1175.82C415.434,1181.343 407.146,1184.242 403.797,1179.949C398.395,1173.027 409.198,1143.755 403.797,1145.309C399.186,1146.636 396.504,1131.521 393.767,1130.289C385.965,1126.777 382.723,1136.218 372.016,1183.829C368.018,1201.607 363.144,1217.863 361.27,1234.045C359.938,1245.546 361.574,1256.746 361.27,1266.82C360.982,1276.374 365.662,1282.586 366.265,1290.404C367.368,1304.699 370.941,1321.295 374.874,1327.699C378.604,1333.772 378.948,1344.111 379.947,1355.202C381.235,1369.497 379.525,1378.987 366.265,1380.556C357.981,1381.536 343.768,1381.855 327.338,1370.835C321.885,1367.178 304.907,1360.584 295.452,1357.536C284.62,1354.045 272.793,1345.758 260.824,1340.608C250.704,1336.253 240.347,1327.871 232.77,1322.8C228.211,1319.748 223.6,1314.12 220.881,1310.955C214.054,1303.006 208.431,1298.512 204.328,1290.404C200.014,1281.88 197.369,1269.751 196.375,1261.842C194.82,1249.48 198.548,1238.401 199.424,1229.856C200.325,1221.073 200.2,1214.574 199.424,1213.31C198.556,1211.897 202.806,1211.487 206.833,1221.185C211.375,1232.121 216.372,1254.188 227.425,1269.556C231.185,1274.785 238.556,1281.546 242.838,1286.742C247.216,1292.055 256.379,1298.577 260.824,1303.461C268.936,1312.373 288.245,1315.908 294.326,1321.542C299.153,1326.015 306.335,1328.883 308.947,1330.012C315.821,1332.982 320.354,1338.465 326.581,1340.321C333.219,1342.299 338.083,1340.398 338.174,1327.699C338.205,1323.477 333.91,1316.015 332.776,1309.152C331.56,1301.802 333.411,1294.838 330.598,1283.855C328.265,1274.748 328.229,1259.388 327.338,1251.351C326.453,1243.365 329.649,1228.55 330.598,1221.185C331.915,1210.965 330.788,1201.533 332.776,1194.433C336.52,1181.053 339.782,1167.763 343.606,1159.712C347.914,1150.646 350.661,1142.462 354.416,1133.544C362.928,1113.328 364.121,1109.861 372.016,1093.909C375.399,1087.075 389.696,1090.056 401.163,1097.495C413.032,1105.195 419.444,1139.14 424.728,1112.805C426.973,1101.616 431.246,1094.223 432.206,1086.842C433.167,1079.446 433.347,1066.611 432.121,1059.311C431.098,1053.218 430.217,1044.359 428.681,1035.624C425.481,1017.424 424.997,1000.446 419.93,988.25C418.543,984.913 416.568,975.203 414.33,966.603C412.341,958.964 410.036,952.288 409.422,950.399C406.174,940.403 419.538,953.844 432.121,972.657ZM908.612,956.14C903.931,947.36 916.065,953.325 919.31,966.702C923.673,984.69 929.201,1033.697 931.001,1042.611C931.529,1045.228 932.605,1047.922 934.228,1050.695C936.478,1054.538 947.741,1073.345 953.571,1092.865C956.525,1102.752 956.525,1116.599 951.894,1126.027C948.071,1133.809 954.105,1132.315 966.988,1122.391C977.657,1114.173 991.75,1095.129 999.695,1095.007C1004.373,1094.935 1025.838,1108.442 1036.394,1157.386C1040.819,1177.898 1034.62,1223.804 1039.528,1246.784C1041.543,1256.217 1049.535,1271.269 1052.631,1284.403C1055.717,1297.492 1060.5,1310.865 1054.562,1322.504C1048.624,1334.143 1045.886,1336.752 1085.244,1308.776C1093.237,1303.095 1108.757,1293.256 1119.003,1283.608C1130.594,1272.695 1134.246,1262.782 1149.506,1246.784C1159.047,1236.782 1166.611,1212.987 1179.004,1184.639C1183.768,1173.739 1191.623,1157.616 1200.331,1133.175C1204.512,1121.438 1212.787,1115.342 1209.283,1093.888C1205.779,1072.434 1221.25,1093.725 1222.656,1101.132C1227.722,1127.815 1216.948,1145.135 1215.335,1152.466C1211.293,1170.841 1208.267,1187.42 1202.254,1202.392C1192.885,1225.726 1191.579,1247.784 1181.425,1266.049C1170.825,1285.116 1154.872,1303.03 1140.364,1314.489C1119.341,1331.092 1092.549,1336.543 1068.254,1356.223C1058.6,1364.043 1048.637,1368.769 1039.738,1371.129C1026.764,1374.571 1016.051,1372.986 1011.855,1368.639C1008.631,1365.298 1009.255,1360.325 1015.658,1354.748C1022.029,1349.2 1022.528,1331.548 1022.54,1305.492L1022.54,1303.051C1022.535,1293.004 1011.247,1273.467 1008.865,1252.079C1007.909,1243.487 1008.617,1227.964 1008.865,1210.851C1008.963,1204.152 1008.963,1193.526 1008.865,1178.971C1005.192,1152.616 999.514,1138.383 991.834,1136.273C986.413,1134.784 965.061,1154.077 943.035,1170.752C933.855,1177.702 910.515,1187.803 919.31,1170.752C921.812,1165.902 927.913,1140.632 927.138,1113.693C926.936,1106.681 921.583,1090.238 915.448,1076.615C910.152,1064.858 904.112,1056.506 902.217,1042.611C900.661,1031.208 907.974,1014.762 908.512,992.14C908.773,981.141 913.294,964.921 908.612,956.14ZM23.173,465C27.967,490.359 30.788,507.734 31.636,517.124C33.432,537.005 30.521,549.479 32.555,559.633C37.807,585.856 46.785,611.261 55.11,636.374C64.301,664.101 68.035,691.357 73.8,716.397C79.994,743.299 76.943,752.29 78.101,775.022C78.874,790.189 75.018,815.307 73.8,831.459C71.772,858.362 68.253,876.575 67.032,903.576C66.656,911.891 66.339,940.696 67.032,948.683C68.446,964.978 73.351,980.68 78.101,994.763C91.95,1035.816 123.143,1077.303 137.437,1128.73C144.419,1153.851 146.495,1194.501 152.193,1206.836C154.428,1211.672 158.898,1186.082 170.872,1175.537C182.846,1164.991 197.589,1160.397 195.861,1163.113C190.679,1171.255 185.376,1174.33 180.589,1190.867C177.789,1200.544 175.421,1224.896 170.872,1252.329C170.013,1257.513 168.217,1264.07 165.486,1272C157.051,1269.658 151.31,1267.34 148.263,1265.047C138.978,1258.058 134.053,1247.745 130.974,1241.064C125.565,1229.326 123.325,1226.841 120.904,1213.214C119.506,1205.345 117.707,1185.729 116.082,1179.18C109.705,1153.468 102.093,1137.002 95.683,1125.128C89.313,1113.328 84.795,1098.333 78.634,1088.078C70.992,1075.358 64.735,1066.912 57.789,1056.694C41.969,1033.421 42.348,1012.675 37.674,994.763C31.264,970.191 25.058,956.099 23.173,933.837C21.169,910.174 29.77,878.508 31.049,857.989C31.643,848.476 37.465,819.154 37.674,796.112C37.951,765.697 32.434,740.738 31.632,732.455C30.449,720.226 33.474,701.964 31.632,691.751C29.44,679.598 27.101,667.105 24.466,657.009C19.276,637.125 9.767,620.272 5.931,603.372C1.813,585.234 -1.555,569.443 0.75,546.83C2.312,531.508 2.56,512.59 6.061,500.507C9.035,490.242 14.739,478.406 23.173,465ZM194.982,733L196.372,736.316C197.427,748.048 201.632,765.966 194.893,784.167C188.154,802.369 181.405,821.161 181.723,832.591C182.042,844.07 186.048,847.761 190.445,857.737C195.627,869.495 205.578,887.065 209.799,900.331C212.247,908.023 212.818,921.566 213.617,935.869C214.235,946.948 218.755,963.209 221.664,986.544C225.478,1017.135 255.859,1039.629 259.922,1040.766C266.1,1042.495 254.931,1029.151 259.922,1000.989C264.208,976.807 278.09,963.615 284.039,954.258L283.045,956.734L281.142,961.442C275.535,975.394 281.142,995.881 281.142,1017.135C281.142,1031.896 278.878,1048.094 284.039,1063.466C288.858,1077.818 284.304,1096 275.739,1096C258.002,1096 247.064,1072.568 232.213,1056.896C220.986,1045.05 203.362,1022.894 197.403,1009.102C191.32,995.025 189.776,985.585 185.098,954.258C183.659,944.625 186.178,928.961 185.098,922.125C183.571,912.456 180.713,903.774 177.32,895.666C173.378,886.245 163.023,877.59 158.886,869.07L158.237,867.732C152.717,856.365 147.361,845.171 147.01,832.591C146.711,821.905 153.294,803.964 158.886,792.08C165.67,777.665 178.962,769.277 185.761,756.605C190.434,747.896 193.991,740.052 194.893,733.698L194.982,733ZM394.453,827.144C391.797,811.195 401.2,741.913 412.578,811.315C415.179,827.175 419.123,839.335 422.473,852.06C425.954,865.276 428.359,878.915 432.814,892.906C437.324,907.068 442.265,917.994 447.595,928.305C450.195,933.335 462.119,945.788 473.584,958.611C485.732,972.198 503.592,981.318 509.317,985.46C523.014,995.367 538.454,992.7 556.893,993.978C568.124,994.756 591.809,997.768 614.528,990.131C625.742,986.361 641.152,976.66 660.759,961.028C674.752,975.896 684.452,985.067 689.859,988.544C697.055,993.17 702.218,996.96 709.223,1000.02C722.509,1005.823 736.804,1006.205 751.748,1005.352C764.568,1004.62 780.773,999.483 800.148,993.978C819.524,988.472 837.227,971.453 842.311,965.346C851.574,954.221 854.787,945.301 863.73,928.305C867.995,920.199 873.284,913.95 878.584,901.987C887.696,881.42 887.451,859.177 888.418,850.983C889.175,844.563 902.024,857.849 902,873.431C901.967,889.299 896.549,907.652 892.399,921.587C889.661,930.782 887.142,938.466 881.165,950.737C875.173,963.041 870.601,966.766 856.466,986.872C842.596,1006.602 813.847,1018.757 805.513,1021.743C798.881,1028.672 793.783,1033.595 790.221,1036.511C773.341,1050.328 759.577,1057.727 752.804,1061.303C731.278,1072.665 703.559,1079.672 674.248,1081.503C638.681,1083.725 591.917,1078.592 565.607,1064.164C556.065,1058.93 532.346,1035.534 556.547,1039.686C566.393,1041.375 580.044,1050.124 594.591,1052.028C615.799,1054.803 640.146,1060.57 660.553,1059.288C672.33,1058.548 700.296,1053.491 714.127,1050.06C722.22,1048.052 733.88,1042.677 749.107,1033.934C737.971,1033.468 709.53,1030.675 702.782,1028.933C691.371,1025.987 679.713,1023.102 671.05,1013.792C668.339,1010.879 664.909,1008.125 660.759,1005.531C643.165,1014.77 626.291,1021.273 610.136,1025.041C593.981,1028.809 568.61,1028.809 534.022,1025.041C497.77,1017.542 468.309,998.767 445.639,968.718C436.08,956.048 421.316,936.235 414.679,915.569C409.161,898.388 401.2,867.656 394.453,827.144ZM1138.052,868.632C1138.052,873.704 1136.013,891.38 1136.383,894.442C1137.528,903.926 1137.857,914.215 1141.796,921.722C1147.689,932.952 1149.905,943.104 1154.388,954.016C1160.484,981.386 1158.864,1004.266 1149.525,1022.656C1144.285,1032.975 1130.426,1047.603 1117.287,1057.235C1107.081,1064.717 1088.958,1077.961 1084.923,1074.406C1082.656,1072.409 1084.302,1060.779 1082.891,1053.129C1081.832,1047.385 1080.466,1041.213 1080.72,1036.622C1080.912,1033.155 1081.947,1024.442 1080.72,1017.562C1080.082,1013.982 1078.175,1008.752 1075,1001.871C1080.03,1005.057 1096.083,1000.556 1100.142,1016.612C1101.274,1021.091 1103.417,1047.941 1124.003,1017.562C1130.022,1008.681 1130.606,974.056 1127.649,962.405C1124.501,950 1122.683,938.151 1120.467,924.968L1120.257,923.685C1118.492,912.638 1114.525,905.689 1120.467,892.331C1121.212,890.656 1138.052,863.559 1138.052,868.632ZM1219.459,248.66C1208.762,236.471 1251.716,255.882 1273.242,289.736C1279.803,300.056 1278.123,311.652 1281.933,324.008C1286.502,338.822 1291.207,354.806 1293.115,372.028C1295.004,389.079 1293.459,410.485 1292.273,434.711C1291.619,448.055 1290.459,467.522 1286.777,481.999C1281.206,503.901 1274.219,524.147 1267.931,547.099C1262.697,566.202 1261.962,594.565 1261.962,616.654C1261.962,635.626 1271.858,667.731 1279.183,725.66C1280.62,737.028 1282.863,755.134 1282.808,767.789C1282.707,790.967 1282.808,817.652 1282.808,846.888C1282.808,866.143 1278.826,883.326 1273.242,900.79C1264.496,928.14 1268.902,962.511 1241.573,992.183C1233.1,1001.382 1226.529,1001.928 1217.638,1020.251C1213.249,1029.296 1206.915,1014.698 1214.615,995.768C1221.412,979.061 1232.746,970.302 1236.73,959.88C1242.581,944.574 1237.885,916.902 1242.372,904.246C1250.572,881.119 1248.638,862.029 1248.638,846.888C1248.638,842.06 1247.965,819.951 1246.35,797.26L1246.25,795.87C1245.25,782.135 1243.596,768.684 1242.372,757.823C1240.274,739.208 1237.02,721.824 1232.446,703.201C1227.728,683.993 1221.687,663.427 1219.459,636.207C1218.685,626.751 1222.579,616.868 1222.199,605.761C1221.418,582.918 1221.404,561.456 1227.285,535.904C1230.508,521.902 1237.741,505.02 1242.372,489.858C1246.084,477.704 1253.552,464.268 1257.579,451.266C1265.392,426.042 1262.894,400.12 1261.876,372.028C1261.16,352.251 1260.049,325.286 1251.064,305.341C1239.031,278.626 1230.155,260.849 1219.459,248.66ZM1116.948,623.507C1114.795,613.004 1121.896,614.004 1127.554,623.507C1131.969,630.921 1134.686,643.991 1137.618,657.182L1137.945,658.648C1139.617,666.123 1143.311,674.374 1142.979,682.291C1142.415,695.742 1136.404,708.179 1133.93,713.857C1129.652,723.678 1116.335,745.348 1106.788,753.606C1099.634,759.794 1058.229,785.45 1059.349,775.889C1059.866,771.47 1065.193,759.662 1066.695,748.932C1068.444,736.448 1061.645,709.861 1059.349,703.989C1057.052,698.118 1066.458,694.334 1077.184,713.857C1080.969,720.746 1081.799,741.734 1091.29,731.22L1091.879,730.554C1098.329,723.12 1107.638,704.124 1111.903,694.334C1116.595,683.564 1123.411,655.041 1116.948,623.507ZM915.126,1.093C920.937,2.402 928.115,4.268 933.857,7.696C938.119,10.241 942.672,13.022 946.739,15.936C951.01,18.996 955.039,24.863 959.865,30.467C962.647,33.699 967.823,38.393 972.412,45.348C975.476,49.992 981.6,59.426 987.447,52.668C988.71,51.209 994.586,44.973 1001.759,38.798C1006.798,34.461 1014.687,28.928 1023.775,26.099C1031.18,23.793 1038.712,20.758 1050.612,21.884C1053.331,22.142 1060.687,21.562 1063.668,21.884C1070.791,22.656 1076.633,26.978 1082.113,30.467C1092.503,37.082 1099.14,40.946 1109.01,50.4C1111.636,52.916 1116.244,58.306 1120.278,65.876C1121.87,68.863 1125.254,79.243 1117.031,74.34C1115.505,73.43 1098.255,66.517 1085.436,65.876C1070.709,65.139 1060.132,70.842 1057.537,72.686C1055.143,74.388 1048.462,78.407 1046.211,82.499C1043.538,87.357 1042.421,93.554 1044.474,97.594C1047.012,102.59 1052.463,107.22 1059.945,107.22C1061.355,107.22 1074.716,106.755 1087.511,109.301C1090.954,109.986 1101.894,110.846 1111.366,113.132C1120.685,115.382 1128.54,119.05 1131.761,120.778C1135.141,122.59 1148.944,126.972 1158.841,134.008C1168.993,141.226 1175.217,151.091 1176.514,152.285C1179.442,154.98 1179.343,160.962 1183.751,177.695C1185.04,182.589 1181.129,208.849 1176.514,192.943C1171.899,177.037 1166.827,177.365 1158.841,168.504C1150.856,159.642 1117.45,145.571 1106.308,140.809C1100.881,138.49 1089.816,136.198 1076.418,137.141C1067.133,137.795 1046.546,138.264 1018.047,126.798C989.548,115.332 998.905,92.458 998.905,85.555C998.905,75.771 982.245,102.909 975.247,99.58C970.327,97.24 962.737,81.254 959.865,88.134C957.056,94.861 949.481,104.626 937.142,117.428L932.848,113.619C958.414,138.137 961.744,170.424 972.114,177.974C975.595,180.507 980.588,182.224 986.451,177.974C990.783,174.833 993.9,166.578 1001.479,166.578C1019.314,166.578 1013.736,214.652 1016.182,223.558C1017.968,230.059 1030.272,240.929 1035.318,252.575C1043.209,270.784 1042.238,288.693 1023.742,276.732C1009.94,267.805 1027.458,394.239 1023.742,419.203C1016.15,470.217 1016.566,523.791 990.08,568.005C908.562,704.084 977.115,663.682 916.618,756.088C911.505,763.899 911.391,719.333 913.135,706.327C915.628,687.738 911.463,684.037 924.666,652.203C930.465,638.22 932.09,623.693 938.424,607.658C944.405,592.514 955.644,576.11 962.434,559.264C969.516,541.694 976.96,523.619 981.61,504.776C986.017,486.921 987.601,467.687 988.004,447.991C988.279,434.574 996.027,418.954 995.723,405.398C995.42,391.853 991.905,380.371 992.059,367.265C992.105,363.289 988.766,346.039 986.451,333.097C984.734,323.503 984.363,319.4 982.244,308.435C980.207,297.891 973.832,285.798 972.114,276.732C969.779,264.406 972.38,256.303 972.114,252.575C971.387,242.378 997.208,262.412 995.723,252.575C995.323,249.923 986.018,243.155 986.451,234.95C987.044,223.712 991.514,210.394 986.451,206.909C980.93,203.11 964.475,231.926 960.516,216.235C956.557,200.543 949.362,199.374 942.708,185.235C928.375,154.784 907.757,119.77 877.947,99.843C859.581,87.566 846.955,80.446 830.54,73.358C813.596,66.042 792.925,58.907 777.91,55.671C758.244,51.432 724.699,50.886 708.04,50.729C676.126,50.427 664.883,62.2 642.173,59.174C624.382,56.804 586.458,49.217 543.864,59.174C518.598,65.081 486.035,68.949 460.71,82.486C435.013,96.221 416.722,119.839 395.367,142.383C375.398,163.464 355.196,186.195 340.439,214.171C330.721,232.593 324.778,247.158 317.812,268.29C311.191,288.377 308.73,315.47 306.026,349.21C304.919,363.013 300.525,377.95 300.876,393.942C301.307,413.618 302.332,434.749 306.026,457.714C310.703,486.791 316.754,523.039 350.12,597.977C355.419,609.879 365.47,629.305 371.953,652.203C374.541,661.345 373.415,674.163 368.575,690.657C360.677,680.521 355.016,672.274 351.593,665.916C343.662,651.186 339.951,636.775 333.208,622.865C327.25,610.574 319.94,598.935 314.918,587.553C307.079,569.785 298.606,551.96 293.074,537.193C285.703,517.518 283.99,501.989 280.779,489.625C277.864,478.4 276.847,464.042 275.308,453.022C269.911,414.356 275.263,378.767 278.346,345.441C280.321,324.098 279.242,303.44 280.779,284.295C281.884,270.521 286.604,257.249 290.433,244.491C302.271,205.056 324.498,169.802 358.954,133.847C364.513,128.047 369.975,121.897 375.526,115.591L367.967,123.547C367.743,111.907 366.312,103.186 363.676,97.383C361.159,91.841 358.589,80.331 353.723,76.67C336.474,63.691 330.527,58.461 331.4,62.754C340.619,108.066 254.687,112.433 238.54,128.062C220.307,145.71 199.536,176.108 175.259,196.626C156.996,212.06 133.949,219.225 124.096,226.083C92.792,247.87 71.794,277.254 66.45,292.848C57.486,319.005 55.456,343.191 51.419,366.6C49.839,375.761 46.827,389.228 42.384,407C32.439,384.472 27.499,366.367 27.566,352.684C27.601,345.354 22.072,329.947 23.136,321.154C24.935,306.293 26.121,296.422 36.094,258.889C46.067,221.355 63.059,217.571 75.103,204.434C91.811,186.21 129.389,184.129 155.452,156.711C181.514,129.292 192.147,105.036 218.233,89.828C244.32,74.619 278.944,78.569 283.64,76.67C288.336,74.771 287.707,70.403 274.394,67.121C261.082,63.839 254.669,65.954 246.867,67.121C227.83,69.97 230.093,74.362 218.233,76.67C206.373,78.978 205.26,63.946 246.867,34.443C260.41,24.84 281.352,22.37 295.463,22.032C324.705,21.332 345.889,32.28 360.258,43.18C374.28,53.818 387.372,69.112 399.535,89.062C425.378,62.298 457.296,37.516 509.008,29.124C590.025,15.977 599.014,29.124 642.173,29.124C685.333,29.124 689.254,12.034 783.833,22.262C853.754,29.824 877.172,58.013 898.736,82.24C904.074,80.775 907.493,78.586 908.992,75.671C910.466,72.806 910.889,65.655 912.488,62.171C914.681,57.392 912.556,52.369 912.488,49.069C912.42,45.757 913.811,40.919 912.488,36.087C911.644,33.004 912.509,27.651 908.992,21.884C906.608,17.976 903.339,16.974 900.723,13.35C898.107,9.727 881.152,4.737 896.065,1.093C902.031,-0.364 908.652,-0.364 915.126,1.093ZM549.382,314.393C550.538,315.038 557.645,320.526 558.528,321.175C571.747,330.882 588.297,357.113 601.252,421.1C609.806,463.347 608.813,522.442 598.272,598.387C594.464,625.83 588.163,627.139 579.371,602.314C584.768,554.244 587.64,520.978 587.989,502.516C588.799,459.638 583.135,430.23 579.371,413.186C575.235,394.459 558.144,354.232 545.643,339.194C537.249,329.096 517.894,318.218 516.543,314.468C511.99,301.837 537.223,307.611 549.382,314.393ZM754.546,320.112C763.708,313.471 797.514,300.227 792.495,314.078C791.134,317.832 771.644,327.79 763.194,337.901C750.61,352.958 734.765,394.162 730.601,412.914L730.487,413.43C726.698,430.571 721.118,459.857 721.925,502.361C722.255,519.739 724.83,550.214 729.651,593.787L730.601,602.291C722.559,627.148 716.621,625.837 712.786,598.359L712.471,596.082C702.156,521.132 701.261,462.718 709.786,420.838C722.829,356.767 741.237,329.759 754.546,320.112ZM154.051,350.924C161.479,343.331 168.786,339.786 167.151,346.716C165.016,355.768 161.145,361.752 158.379,371.499C157.623,374.166 155.094,378.62 154.051,382.077C152.12,388.477 152.544,389.811 151.306,396.56C150.193,402.628 147.836,408.288 148.059,414.489C148.372,423.236 151.847,432.131 154.051,436.687C159.193,447.319 160.094,436.49 167.151,428.078C173.642,420.341 186.024,415.289 196.622,416.729C212.389,418.873 202.819,420.689 193.036,430.271C189.094,434.133 184.743,437.878 182.58,445.543C181.823,448.224 180.122,451.527 179.304,454.139C177.961,458.424 177.553,461.883 176.921,465.345C175.173,474.919 176.41,481.352 176.921,488.004C177.233,492.072 176.485,496.775 176.921,500.708C177.453,505.514 165.128,495.938 158.379,488.004C152.512,481.107 147.898,470.194 144.564,465.345C141.95,461.545 144.564,479.917 137.527,469.906C130.489,459.895 131.837,458.004 128.889,451.003C126.677,445.75 126.844,436.025 125.439,432.467C120.57,420.138 120.202,416.302 121.971,409.318C122.785,406.108 124.05,402.232 125.537,396.56C127.425,389.359 132.938,380.702 139.044,371.499C143.936,364.128 149.071,356.015 154.051,350.924ZM503.769,361.475C513.184,363.456 526.777,371.346 531.805,378.897C548.949,404.644 564.337,451.821 558.882,456.252L558.559,456.508C553.363,460.532 551.562,456.885 526.504,456.252C511.914,455.883 492.148,467 479.044,467C464.395,467 443.411,462.098 435.867,456.252C409.3,435.663 402.206,408.074 403.068,403.934C403.685,400.971 415.569,390.703 424.883,383.119L425.536,382.588C436.667,373.558 444.425,368.601 454.764,363.63C472.665,355.023 487.034,357.954 503.769,361.475ZM854.236,363.63L855.571,364.279C865.036,368.931 872.472,373.728 882.742,382.005L884.778,383.659C893.984,391.182 905.329,401.041 905.932,403.934C906.794,408.074 899.7,435.663 873.133,456.252C865.589,462.098 844.605,467 829.956,467C816.852,467 797.086,455.883 782.496,456.252C756.926,456.898 755.573,460.682 750.118,456.252C744.663,451.821 760.051,404.644 777.195,378.897C782.223,371.346 795.816,363.456 805.231,361.475L808.094,360.876C823.63,357.655 837.364,355.518 854.236,363.63ZM922.816,105.314C924.482,106.5 926.075,107.719 927.599,108.967L903.877,87.942C909.76,94.341 915.77,100.298 922.816,105.314Z"/>
                <path id="Combined-Shape1" serif:id="Combined-Shape" d="M662.657,766.806C674.067,765.026 685.538,764.136 697.069,764.136C706.248,764.136 728.853,770.912 744.676,784.873C758.695,797.243 766.666,816.416 765.956,824.317C765.244,832.246 763.905,838.839 762.098,844.369C758.84,846.535 744.623,851.342 734.016,845.277C724.175,839.649 723.443,822.219 708.841,821.484L707.887,821.445C694.181,821.008 692.877,826.724 690.068,834.947C688.956,838.204 687.848,849.957 690.068,855.485C692.117,860.586 697.118,864.7 702.484,865.896C716.036,868.915 732.915,867.677 744.676,865.896C750.757,864.975 759.023,860.471 757.644,863.152C756.265,865.833 754.762,868.103 753.166,870.042C741.531,884.173 724.953,880.693 715.529,890.222L714.573,891.199C698.985,907.288 684.973,929.411 662.657,929.411C649.826,929.411 648.272,926.637 636.75,916.04L635.793,915.163C627.401,907.502 625.707,903.718 616.825,896.111C607.304,887.956 592.929,887.612 585.888,881.355C581.29,877.27 576.332,873.781 572.937,870.773L572.594,870.458C570.465,868.448 566.639,863.848 569.267,864.354L570.024,864.505C573.021,865.113 578.266,866.313 580.566,866.767C596.041,869.819 615.594,869.634 628.393,863.152C639.107,857.726 636.034,834.285 630.437,827.519C627.261,823.681 622.627,820.942 616.137,821.444L615.681,821.484C613.284,821.723 609.983,822.224 606.152,826.537C600.609,832.779 597.022,840.701 590.999,844.369C584.662,848.229 575.959,849.007 564.888,846.705L564.334,845.413C561.634,839.05 559.975,834.137 559.358,830.673C557.429,819.847 563.186,799.789 579.425,784.873C593.193,772.227 615.428,767.084 620.034,766.03C632.898,763.086 647.106,763.344 662.657,766.806ZM626.139,784.094C615.643,784.913 608.153,789.681 603.169,794.258C599.718,797.428 597.989,810.143 615.407,806.379C621.221,805.122 639.286,806.721 645.802,817.686C651.62,829.931 654.654,838.225 654.903,842.568C655.415,851.504 651.168,871.165 645.802,873.883C639.445,877.102 633.444,881.422 640.701,889.712C647.318,897.271 651.878,901.212 663.234,901.212C673.969,901.212 677.76,898.966 683.839,892.819C685.936,890.698 690.16,886.935 689.623,881.422C689.381,878.936 687.842,877.448 681.968,871.247C677.025,866.029 671.682,856.938 670.854,854.876C668.89,849.985 667.608,833.333 670.854,825.132C673.764,817.778 692.866,800.468 710.845,806.379C723.762,810.625 720.832,798.767 715.826,792.52C711.944,787.676 692.408,784.094 688.861,784.094C678.659,784.094 673.328,787.738 663.234,789.313C654.868,787.149 640.285,782.989 626.139,784.094Z"/>
                <path id="Combined-Shape2" serif:id="Combined-Shape" d="M851.16,378.893L852.714,379.677C857.746,382.239 861.309,384.261 863.403,385.744C868.816,389.578 872.754,393.993 874.524,397.005C878.698,404.107 878.591,415.371 877.43,422.415C875.819,432.187 870.12,440.575 859.638,446.238C857.671,447.301 854.225,448.768 850.263,450.005L849.785,450.153C848.082,450.671 845.309,451.359 841.467,452.217C853.046,447.172 859.916,440.636 862.077,432.61L862.352,431.603C863.548,427.243 865.373,420.936 865.938,416.125L866.051,415.042C866.224,413.306 866.486,410.545 866.331,408.084C866.237,406.603 865.871,404.327 865.231,401.257C862.308,403.522 858.605,404.432 854.124,403.987C847.443,403.323 846.133,398.815 845.062,395.731C843.958,392.549 843.525,388 845.062,383.9C845.684,382.243 847.716,380.574 851.16,378.893ZM451.532,382.355C448.949,385.835 447.277,388.674 446.514,390.872C443.577,399.333 443.234,409.435 444,418.874C444.869,429.581 449.802,439.553 458.6,447.309C459.92,448.473 462.067,449.897 465.043,451.582L462.479,450.869C457.102,449.352 453.453,448.165 451.532,447.309C446.368,445.008 444.225,442.538 442.112,440.637L441.739,440.307C433.846,433.484 431.388,424.323 431.308,415.661L431.297,411.941C431.295,407.453 431.43,402.644 432.818,399.196C434.886,394.057 441.124,388.444 451.532,382.355ZM796.342,380.47L795.249,381.668C792.32,384.912 790.276,387.469 789.116,389.34C784.899,396.141 782.846,403.345 783,409.265L783.022,409.94C783.258,415.954 784.683,426.28 789.116,435.561C790.555,438.576 793.545,442.51 798.083,447.364C795.184,446.902 792.684,446.671 790.583,446.671L790.076,446.675C787.964,446.708 784.82,446.937 780.643,447.364C776.821,444.624 773.886,441.346 771.841,437.53C769.796,433.715 768.385,428.818 767.608,422.84L770.143,417.586C771.051,415.685 771.608,414.484 771.815,413.981L774.211,407.991C776.77,401.646 777.969,399.048 780.218,395.645L781.87,393.189C783.62,390.603 785.802,387.503 788.142,385.407C789.781,383.939 792.514,382.294 796.342,380.47ZM508.287,378.671L509.806,379.347C515.717,382.005 519.611,384.13 521.489,385.722C525.121,388.802 527.267,392.601 528.649,395.479L529.082,396.402C531.235,401.08 534.359,406.354 537.349,412.91L537.694,413.672C538.552,415.59 539.709,418.773 541.162,423.22C539.949,429.171 538.603,433.619 537.124,436.564C535.645,439.509 532.965,443.079 529.082,447.273C526.678,446.943 524.383,446.779 522.199,446.779C520.813,446.779 518.314,447.09 515.849,447.248L515.439,447.273C514.584,447.322 513.389,447.322 511.854,447.273C519.268,438.513 523.781,430.925 525.392,424.508C526.408,420.462 527.468,414.275 527,407.883C526.817,405.385 526.026,401.558 524.626,396.402L524.296,397.104C523.211,399.37 522.275,400.891 521.489,401.667C518.656,404.467 515.01,405.326 511.854,405.326C501.21,405.326 499.626,395.052 499.082,392.662C498.494,390.072 499.261,385.581 502.293,382.215C503.252,381.149 505.25,379.968 508.287,378.671ZM545.941,440.307C546.059,442.286 545.855,443.605 545.33,444.264C544.805,444.922 543.738,445.566 542.129,446.198L545.941,440.307ZM763.06,439.721L766.976,445.872C764.872,445.436 763.567,444.801 763.06,443.969C762.553,443.137 762.553,441.721 763.06,439.721Z" style="fill:white;"/>
            </g>
        </g>
    </g>
</svg>
